<svg xmlns="http://www.w3.org/2000/svg" xmlns:xlink="http://www.w3.org/1999/xlink" fill="none" version="1.1" width="16" height="16" viewBox="0 0 16 16"><defs><clipPath id="master_svg0_50_3550"><rect x="0" y="0" width="16" height="16" rx="0"/></clipPath></defs><g clip-path="url(#master_svg0_50_3550)"><g><path d="M13.600000643730164,14.800000677871704L6.550000643730163,7.750000677871704C6.450000643730164,7.650000677871704,6.450000643730164,7.450000677871704,6.550000643730163,7.350000677871704L7.400000643730164,6.500000677871704C7.500000643730163,6.400000677871704,7.700000643730164,6.400000677871704,7.800000643730163,6.500000677871704L14.850000643730164,13.600000677871703L14.900000643730163,13.650000677871704C15.250000643730164,14.000000677871704,15.200000643730164,14.550000677871704,14.850000643730164,14.850000677871703C14.700000643730164,15.000000677871704,14.450000643730164,15.100000677871703,14.250000643730164,15.100000677871703C13.950000643730164,15.100000677871703,13.750000643730164,15.000000677871704,13.600000643730164,14.800000677871704ZM3.1500006437301638,11.750000677871704C2.8500006437301635,10.750000677871704,2.0500006437301637,9.950000677871705,1.0500006437301637,9.650000677871704C1.0000007437301637,9.600000677871703,0.9500006437301636,9.550000677871704,0.9500006437301636,9.450000677871705C0.9500006437301636,9.400000677871704,1.0000006437301636,9.350000677871703,1.0500006437301637,9.300000677871704C2.0500006437301637,9.000000677871704,2.8500006437301635,8.200000677871703,3.1500006437301638,7.200000677871704C3.1500006437301638,7.150000677871704,3.2000006437301636,7.100000677871704,3.2500006437301634,7.100000677871704C3.3500006437301635,7.050000677871704,3.4500006437301636,7.100000677871704,3.5000006437301634,7.200000677871704C3.8000006437301637,8.200000677871703,4.600000643730164,9.000000677871704,5.600000643730164,9.300000677871704C5.650000643730164,9.300000677871704,5.700000643730164,9.350000677871703,5.700000643730164,9.400000677871704C5.750000643730163,9.500000677871704,5.700000643730164,9.600000677871703,5.600000643730164,9.650000677871704C4.600000643730164,9.950000677871705,3.8000006437301637,10.750000677871704,3.5000006437301634,11.750000677871704C3.4500006437301636,11.800000677871704,3.4000006437301638,11.850000677871703,3.3500006437301635,11.850000677871703C3.2000006437301636,11.850000677871703,3.1500006437301638,11.800000677871704,3.1500006437301638,11.750000677871704ZM5.300000643730163,6.500000677871704L4.350000643730164,5.550000677871704C4.200000643730164,5.400000677871704,4.200000643730164,5.100000677871704,4.350000643730164,4.950000677871704L4.950000643730164,4.350000677871704C5.100000643730164,4.200000677871705,5.400000643730164,4.200000677871705,5.550000643730163,4.350000677871704L6.500000643730163,5.300000677871704C6.600000643730164,5.400000677871704,6.600000643730164,5.600000677871704,6.500000643730163,5.700000677871704L5.650000643730164,6.550000677871704C5.600000643730164,6.600000677871704,5.500000643730163,6.650000677871704,5.450000643730164,6.650000677871704C5.400000643730164,6.600000677871704,5.350000643730164,6.600000677871704,5.300000643730163,6.500000677871704ZM9.900000643730163,6.100000677871704C9.550000643730163,4.950000677871704,8.650000643730163,4.100000677871704,7.550000643730163,3.750000677871704C7.500000643730163,3.750000677871704,7.450000643730164,3.7000006778717043,7.400000643730164,3.600000677871704C7.350000643730164,3.500000677871704,7.450000643730164,3.400000677871704,7.550000643730163,3.350000677871704C8.700000643730164,3.000000677871704,9.550000643730163,2.100000677871704,9.900000643730163,0.9999996778717041C9.900000643730163,0.9499996778717041,9.950000643730164,0.899999977871704,10.050000643730163,0.8499999778717041C10.150000643730163,0.7999999778717041,10.250000643730164,0.9000000778717041,10.300000643730163,0.9999996778717041C10.650000643730163,2.150000677871704,11.550000643730163,3.000000677871704,12.650000643730163,3.350000677871704C12.700000643730164,3.400000677871704,12.750000643730164,3.4500006778717043,12.750000643730164,3.550000677871704C12.750000643730164,3.650000677871704,12.700000643730164,3.7000006778717043,12.650000643730163,3.750000677871704C11.500000643730164,4.100000677871704,10.650000643730163,5.000000677871704,10.300000643730163,6.100000677871704C10.300000643730163,6.200000677871704,10.200000643730164,6.250000677871704,10.100000643730164,6.250000677871704C10.000000643730164,6.250000677871704,9.900000643730163,6.200000677871704,9.900000643730163,6.100000677871704ZM2.7000006437301636,4.450000677871705C2.6500006437301638,4.450000677871705,2.6000006437301635,4.400000677871704,2.6000006437301635,4.350000677871704C2.4000006437301638,3.600000677871704,1.8000006437301637,3.000000677871704,1.0500006437301637,2.8000006778717044C1.0000009437301636,2.8000006778717044,1.0000009437301636,2.750000677871704,0.9500008821491636,2.700000677871704C0.9500008821491636,2.650000677871704,0.9500008821491636,2.5500006778717044,1.0500006437301637,2.5500006778717044C1.8000006437301637,2.350000677871704,2.4000006437301638,1.749999677871704,2.6000006437301635,0.9999996778717041C2.6000006437301635,0.9499996778717041,2.6500006437301638,0.9499996778717041,2.7000006437301636,0.899999977871704C2.7500006437301634,0.899999977871704,2.8500006437301635,0.899999977871704,2.8500006437301635,0.9999996778717041C3.0500006437301637,1.749999677871704,3.6500006437301638,2.350000677871704,4.400000643730164,2.5500006778717044C4.450000643730164,2.5500006778717044,4.450000643730164,2.600000677871704,4.500000643730163,2.650000677871704C4.500000643730163,2.700000677871704,4.500000643730163,2.8000006778717044,4.400000643730164,2.8000006778717044C3.6500006437301638,3.000000677871704,3.0500006437301637,3.600000677871704,2.8500006437301635,4.350000677871704C2.8000006437301637,4.400000677871704,2.7500006437301634,4.450000677871705,2.7000006437301636,4.450000677871705Z" fill="#FF9500" fill-opacity="1" style="mix-blend-mode:passthrough"/></g></g></svg>