<svg xmlns="http://www.w3.org/2000/svg" xmlns:xlink="http://www.w3.org/1999/xlink" fill="none" version="1.1" width="15.999349594116211" height="16" viewBox="0 0 15.999349594116211 16"><g><path d="M8,0C3.58134,0,0.000325344,3.58166,0.000325344,8.00033C0.000325344,12.4183,3.58134,16,8,16C12.4187,16,15.9997,12.4183,15.9997,8.00033C15.9997,3.58166,12.4187,0,8,0ZM12.7402,4.98361L7.32376,12.1899C7.15454,12.4144,6.8968,12.5557,6.61628,12.5765C6.59155,12.5784,6.56747,12.5791,6.54338,12.5791C6.28825,12.5791,6.04222,12.4795,5.85933,12.2992L2.84522,9.33914C2.46056,8.96099,2.4547,8.34333,2.83285,7.95867C3.211,7.57336,3.82866,7.56881,4.21332,7.94565L6.43274,10.1254L11.1794,3.80946C11.5036,3.37859,12.1154,3.29203,12.5469,3.61551C12.9771,3.94093,13.0643,4.55274,12.7402,4.98361Z" fill="#C3F302" fill-opacity="1" style="mix-blend-mode:passthrough"/></g></svg>