<svg xmlns="http://www.w3.org/2000/svg" xmlns:xlink="http://www.w3.org/1999/xlink" fill="none" version="1.1" width="22" height="22" viewBox="0 0 22 22"><g><g><ellipse cx="11" cy="11" rx="10" ry="10" fill-opacity="0" stroke-opacity="1" stroke="#000000" fill="none" stroke-width="2"/></g><g><path d="M9,7Q9,6.9015086,9.019214999999999,6.80491Q9.03843,6.708311,9.076121,6.617317Q9.113812,6.526322,9.16853,6.44443Q9.223249,6.362537,9.292893,6.292893Q9.362537,6.223249,9.44443,6.16853Q9.526322,6.113812,9.617317,6.076121Q9.708311,6.03843,9.80491,6.019215Q9.9015086,6,10,6Q10.0984914,6,10.19509,6.019215Q10.291689,6.03843,10.382683,6.076121Q10.473678,6.113812,10.55557,6.16853Q10.637463,6.223249,10.707107,6.292893Q10.776751,6.362537,10.83147,6.44443Q10.886188,6.526322,10.923879,6.617317Q10.96157,6.708311,10.980785000000001,6.80491Q11,6.9015086,11,7L11,12L16,12Q16.098489999999998,12,16.19509,12.019210000000001Q16.29169,12.03843,16.38268,12.07612Q16.47368,12.11381,16.55557,12.16853Q16.63746,12.22325,16.70711,12.29289Q16.77675,12.36254,16.83147,12.44443Q16.88619,12.52632,16.92388,12.61732Q16.961570000000002,12.70831,16.98078,12.80491Q17,12.90151,17,13Q17,13.09849,16.98078,13.19509Q16.961570000000002,13.29169,16.92388,13.38268Q16.88619,13.47368,16.83147,13.55557Q16.77675,13.63746,16.70711,13.70711Q16.63746,13.77675,16.55557,13.83147Q16.47368,13.88619,16.38268,13.92388Q16.29169,13.96157,16.19509,13.98078Q16.098489999999998,14,16,14L10,14Q9.9015086,14,9.80491,13.98078Q9.708311,13.96157,9.617317,13.92388Q9.526322,13.88619,9.44443,13.83147Q9.362537,13.77675,9.292893,13.70711Q9.223249,13.63746,9.16853,13.55557Q9.113812,13.47368,9.076121,13.38268Q9.03843,13.29169,9.019214999999999,13.19509Q9,13.09849,9,13L9,7Z" fill-rule="evenodd" fill="#000000" fill-opacity="1"/></g></g></svg>
