<svg xmlns="http://www.w3.org/2000/svg" xmlns:xlink="http://www.w3.org/1999/xlink" fill="none" version="1.1" width="16" height="16" viewBox="0 0 16 16"><defs><clipPath id="master_svg0_83_6129"><rect x="0" y="0" width="16" height="16" rx="0"/></clipPath></defs><g clip-path="url(#master_svg0_83_6129)"><g><path d="M7.999999345855713,6.939999107437134L12.642019345855713,2.298000107437134C12.909019345855713,2.029999707437134,13.364019345855713,2.049999907437134,13.657019345855712,2.343000107437134C13.950019345855713,2.636000107437134,13.970019345855713,3.091000107437134,13.702019345855712,3.357999107437134L9.060999345855713,7.999999107437134L13.702019345855712,12.642019107437134C13.970019345855713,12.909019107437134,13.950019345855713,13.364019107437134,13.657019345855712,13.657019107437133C13.364019345855713,13.950019107437134,12.909019345855713,13.970019107437134,12.642019345855713,13.702019107437133L7.999999345855713,9.060999107437134L3.357999345855713,13.702019107437133C3.090999345855713,13.970019107437134,2.635999345855713,13.950019107437134,2.343000345855713,13.657019107437133C2.049999945855713,13.364019107437134,2.029999945855713,12.909019107437134,2.298000345855713,12.642019107437134L6.938999345855713,7.999999107437134L2.298000345855713,3.357999107437134C2.030000245855713,3.091000107437134,2.050000145855713,2.636000107437134,2.343000345855713,2.343000107437134C2.636000345855713,2.049999907437134,3.091000345855713,2.030000007437134,3.357999345855713,2.298000107437134L7.999999345855713,6.939999107437134L7.999999345855713,6.939999107437134Z" fill="#595959" fill-opacity="1" style="mix-blend-mode:passthrough"/></g></g></svg>