<svg xmlns="http://www.w3.org/2000/svg" xmlns:xlink="http://www.w3.org/1999/xlink" fill="none" version="1.1" width="16" height="16" viewBox="0 0 16 16"><defs><clipPath id="master_svg0_50_3001"><rect x="0" y="0" width="16" height="16" rx="0"/></clipPath><linearGradient x1="0.5" y1="0" x2="0.5" y2="1" id="master_svg1_36_1827"><stop offset="0%" stop-color="#2B2D24" stop-opacity="1"/><stop offset="100%" stop-color="#0B0C09" stop-opacity="1"/></linearGradient><linearGradient x1="0.5" y1="0" x2="0.5" y2="1" id="master_svg2_36_1827"><stop offset="0%" stop-color="#2B2D24" stop-opacity="1"/><stop offset="100%" stop-color="#0B0C09" stop-opacity="1"/></linearGradient></defs><g clip-path="url(#master_svg0_50_3001)"><g><path d="M11.892000423431396,11.176800022506713C11.557980423431395,11.176800022506713,11.287200423431397,10.906020022506715,11.287200423431397,10.572000022506714C11.287200423431397,10.237980022506715,11.557980423431395,9.967200022506713,11.892000423431396,9.967200022506713C12.214980423431395,9.967200022506713,12.476800423431396,9.705370022506713,12.476800423431396,9.382400022506713L12.476800423431396,4.140800022506713C12.476800423431396,3.817820022506714,12.214980423431395,3.556000022506714,11.892000423431396,3.556000022506714L6.650400423431396,3.556000022506714C6.327420423431397,3.556000022506714,6.0656004234313965,3.817820022506714,6.0656004234313965,4.140800022506713C6.0656004234313965,4.474820022506714,5.7948224234313965,4.745600022506714,5.4608004234313965,4.745600022506714C5.1267784234313964,4.745600022506714,4.8560004234313965,4.474820022506714,4.8560004234313965,4.140800022506713C4.858200073431396,3.150693022506714,5.660292423431397,2.348599672506714,6.650400423431396,2.346400022506714L11.892000423431396,2.346400022506714C12.882110423431396,2.348599672506714,13.684200423431397,3.150693022506714,13.686400423431396,4.140800022506713L13.686400423431396,9.382400022506713C13.684200423431397,10.372510022506713,12.882110423431396,11.174600022506715,11.892000423431396,11.176800022506713Z" fill="#FFFFFF" fill-opacity="1"/><path d="M11.892000423431396,11.176800022506713C11.557980423431395,11.176800022506713,11.287200423431397,10.906020022506715,11.287200423431397,10.572000022506714C11.287200423431397,10.237980022506715,11.557980423431395,9.967200022506713,11.892000423431396,9.967200022506713C12.214980423431395,9.967200022506713,12.476800423431396,9.705370022506713,12.476800423431396,9.382400022506713L12.476800423431396,4.140800022506713C12.476800423431396,3.817820022506714,12.214980423431395,3.556000022506714,11.892000423431396,3.556000022506714L6.650400423431396,3.556000022506714C6.327420423431397,3.556000022506714,6.0656004234313965,3.817820022506714,6.0656004234313965,4.140800022506713C6.0656004234313965,4.474820022506714,5.7948224234313965,4.745600022506714,5.4608004234313965,4.745600022506714C5.1267784234313964,4.745600022506714,4.8560004234313965,4.474820022506714,4.8560004234313965,4.140800022506713C4.858200073431396,3.150693022506714,5.660292423431397,2.348599672506714,6.650400423431396,2.346400022506714L11.892000423431396,2.346400022506714C12.882110423431396,2.348599672506714,13.684200423431397,3.150693022506714,13.686400423431396,4.140800022506713L13.686400423431396,9.382400022506713C13.684200423431397,10.372510022506713,12.882110423431396,11.174600022506715,11.892000423431396,11.176800022506713Z" fill="url(#master_svg1_36_1827)" fill-opacity="0.4000000059604645"/></g><g><path d="M9.210397248458861,13.798398848724366L4.190397248458862,13.798398848724366C3.1431602484588623,13.799728848724365,2.293871168458862,12.950438848724366,2.2952001094788623,11.903198848724365L2.2952001094788623,6.863198848724365C2.2934281784588624,5.815647848724366,3.142847248458862,4.965869898724365,4.190397248458862,4.9672002792343655L9.210397248458861,4.9672002792343655C10.257637248458863,4.965872288724365,11.106927248458863,5.815159848724365,11.105597248458862,6.862398848724365L11.105597248458862,11.902398848724365C11.125597248458861,12.951198848724365,10.259197248458863,13.798398848724366,9.210397248458861,13.798398848724366ZM4.190397248458862,6.176798848724365C3.8104572484588624,6.173658848724365,3.501657248458862,6.482458848724365,3.5047972484588623,6.862398848724365L3.5047972484588623,11.902398848724365C3.501657248458862,12.282338848724365,3.8104572484588624,12.591138848724366,4.190397248458862,12.587998848724364L9.210397248458861,12.587998848724364C9.590337248458862,12.591138848724366,9.899137248458862,12.282338848724365,9.895997248458862,11.902398848724365L9.895997248458862,6.862398848724365C9.899137248458862,6.482458848724365,9.590337248458862,6.173658848724365,9.210397248458861,6.176798848724365L4.190397248458862,6.176798848724365Z" fill="#FFFFFF" fill-opacity="1"/><path d="M9.210397248458861,13.798398848724366L4.190397248458862,13.798398848724366C3.1431602484588623,13.799728848724365,2.293871168458862,12.950438848724366,2.2952001094788623,11.903198848724365L2.2952001094788623,6.863198848724365C2.2934281784588624,5.815647848724366,3.142847248458862,4.965869898724365,4.190397248458862,4.9672002792343655L9.210397248458861,4.9672002792343655C10.257637248458863,4.965872288724365,11.106927248458863,5.815159848724365,11.105597248458862,6.862398848724365L11.105597248458862,11.902398848724365C11.125597248458861,12.951198848724365,10.259197248458863,13.798398848724366,9.210397248458861,13.798398848724366ZM4.190397248458862,6.176798848724365C3.8104572484588624,6.173658848724365,3.501657248458862,6.482458848724365,3.5047972484588623,6.862398848724365L3.5047972484588623,11.902398848724365C3.501657248458862,12.282338848724365,3.8104572484588624,12.591138848724366,4.190397248458862,12.587998848724364L9.210397248458861,12.587998848724364C9.590337248458862,12.591138848724366,9.899137248458862,12.282338848724365,9.895997248458862,11.902398848724365L9.895997248458862,6.862398848724365C9.899137248458862,6.482458848724365,9.590337248458862,6.173658848724365,9.210397248458861,6.176798848724365L4.190397248458862,6.176798848724365Z" fill="url(#master_svg2_36_1827)" fill-opacity="0.4000000059604645"/></g></g></svg>