<svg xmlns="http://www.w3.org/2000/svg" xmlns:xlink="http://www.w3.org/1999/xlink" fill="none" version="1.1" width="77.5" height="63" viewBox="0 0 77.5 63"><g><g><path d="M30.454834375,2.422669Q30.500034375,2.213748,30.500034375,2Q30.500034375,1.9017463000000001,30.490434375,1.803966Q30.480734375,1.706185,30.461634375,1.6098189999999999Q30.442434375,1.513454,30.413934375,1.4194309999999999Q30.385434375,1.325408,30.347834375,1.234633Q30.310234375,1.143859,30.263834375,1.057207Q30.217534375,0.97055,30.162934375,0.88886Q30.108334375,0.8071600000000001,30.046034375,0.7312099999999999Q29.983734375,0.65526,29.914234375,0.58579Q29.844734375,0.51631,29.768834375,0.45398000000000005Q29.692834375,0.39165000000000005,29.611134375,0.3370599999999999Q29.529434375,0.28247,29.442834375,0.23615999999999993Q29.356134375,0.18984,29.265434375,0.15223999999999993Q29.174634375,0.11464000000000008,29.080634375,0.08611999999999997Q28.986534375,0.057600000000000096,28.890234375,0.038429999999999964Q28.793834375,0.019260000000000055,28.696034375,0.009630000000000027Q28.598334375,0,28.500034375,0Q28.415134375,0,28.330534375,0.007200000000000095Q28.245934375,0.014399999999999968,28.162234375,0.028739999999999988Q28.078534375,0.04308000000000001,27.996334375,0.06447000000000003Q27.914134375,0.08586000000000005,27.834034375,0.11413000000000006Q27.754034375,0.14240999999999993,27.676634375,0.17737000000000003Q27.599234375,0.2123299999999999,27.525034375,0.25373Q27.450934375,0.29512000000000005,27.380534375,0.3426499999999999Q27.310234375,0.39017999999999997,27.244134375,0.44351000000000007Q27.178034375,0.4968300000000001,27.116734375,0.5555699999999999Q27.055334375,0.6143000000000001,26.999234375,0.6780200000000001Q26.943134375,0.7417400000000001,26.892634375,0.80999Q26.842034375,0.8782399999999999,26.797534375,0.9505300000000001Q26.752934375,1.022816,26.714634375,1.09862Q26.676434375,1.1744240000000001,26.644734375,1.253199Q26.612934375,1.331974,26.588034375,1.4131529999999999Q26.563134375,1.494332,26.545234375,1.577331Q25.479634375,6.50553,24.316834375,9.95608Q19.569034375,8.9183,15.257244374999999,10.64305Q11.625054375,12.0959,11.625024375,16.4375Q11.624994375,21.5155,17.846604375,21.9941Q22.919434375,22.3843,26.525034375,14.8755Q28.849334375,15.8711,31.346634375,17.6339Q36.569234375,21.3205,38.494334375,29.2233Q39.576734375,33.667,39.312834375,37.2078Q31.649634375,35.5685,23.780734375,35.9397Q12.709634375,36.4619,9.085792375,40.0858Q4.946654375,44.2249,6.723264375,49.6817Q8.780392375,56,18.000004375,56Q26.737434375,56,33.845534375,51.7126Q40.552534375,47.6671,42.397334375,42.1325Q42.401834375,42.1191,42.406234375,42.1058Q44.368434375,42.6712,46.316534375,43.3796Q62.341234375,49.2068,74.005134375,62.3287Q74.145934375,62.487,74.316634375,62.6124Q74.487434375,62.7377,74.680634375,62.8245Q74.873934375,62.9113,75.081034375,62.9556Q75.288134375,63,75.500034375,63Q75.598234375,63,75.696034375,62.9904Q75.793834375,62.9807,75.890134375,62.9616Q75.986534375,62.9424,76.080534375,62.9139Q76.174534375,62.8854,76.265334375,62.8478Q76.356134375,62.8102,76.442834375,62.7638Q76.529434375,62.7175,76.611134375,62.6629Q76.692834375,62.6084,76.768834375,62.546Q76.844734375,62.4837,76.914234375,62.4142Q76.983734375,62.3447,77.046034375,62.2688Q77.108334375,62.1928,77.162934375,62.1111Q77.217534375,62.0294,77.263834375,61.9428Q77.310134375,61.8561,77.347734375,61.7654Q77.385334375,61.6746,77.413834375,61.5806Q77.442434375,61.4865,77.461534375,61.3902Q77.480734375,61.2938,77.490334375,61.196Q77.500034375,61.0983,77.500034375,61Q77.500034375,60.8178,77.467134375,60.6387Q77.434134375,60.4595,77.369434375,60.2892Q77.304734375,60.119,77.210234375,59.9632Q77.115834375,59.8074,76.994834375,59.6713Q64.658834375,45.7933,47.683534375,39.6204Q45.470434375,38.8157,43.239734375,38.1837Q43.712034375,33.7423,42.380734375,28.2767Q40.100834375000005,18.9172,33.653334375,14.3661Q30.783034375,12.3399,28.047634375,11.1691Q29.370534375,7.43781,30.454834375,2.422669ZM38.511634375,41.1276Q31.333734375,39.5879,23.969234375,39.9353Q14.443844375000001,40.3846,11.914224375,42.9142Q9.509504375,45.3189,10.526754375,48.4433Q11.684734375,52,18.000004375,52Q25.624434375,52,31.779534375,48.2874Q37.052234375,45.107,38.511634375,41.1276ZM22.795834375,13.7529Q19.581234375,13.2216,16.742814375000002,14.357Q15.625034375,14.8041,15.625024374999999,16.4375Q15.625014375,17.8114,18.153394374999998,18.0059Q20.627034375,18.1962,22.795834375,13.7529Z" fill-rule="evenodd" fill="#FF9500" fill-opacity="1"/></g><g><path d="M19.3701,34.49129015625L19.3706,34.49136015625Q19.435,34.49977015625,19.5,34.49977015625Q19.5985,34.49977015625,19.6951,34.48055015625Q19.7917,34.46134015625,19.8827,34.42365015625Q19.9737,34.38596015625,20.0556,34.33124015625Q20.1375,34.27651815625,20.2071,34.20687415625Q20.2767,34.13723015625,20.3315,34.05533715625Q20.3862,33.97344515625,20.4239,33.88245015625Q20.4616,33.79145615625,20.4808,33.69485715625Q20.5,33.59825915625,20.5,33.49976715625Q20.5,33.40945595625,20.4838,33.32060581625Q20.4676,33.23175565625,20.4358,33.14724215625Q20.404,33.06272815625,20.3575,32.98528615625Q20.311,32.90784415625,20.2515,32.83997915625Q20.1919,32.77211515625,20.1211,32.71602415625Q20.0503,32.65993315625,19.9706,32.61743115625Q19.8909,32.57492815625,19.8049,32.54739015625Q19.7189,32.51985215625,19.6294,32.50816915625Q7.46106,30.92075015625,0.629433,43.00772015625Q0.5,43.23672015625,0.5,43.49976015625Q0.5,43.59826015625,0.519215,43.69486015625Q0.53843,43.79146015625,0.576121,43.88246015625Q0.613812,43.97346015625,0.66853,44.05536015625Q0.723249,44.13726015625,0.792893,44.20686015625Q0.862537,44.27656015625,0.94443,44.331260156249996Q1.026322,44.38596015625,1.117317,44.42366015625Q1.2083110000000001,44.46136015625,1.30491,44.48056015625Q1.4015086,44.49976015625,1.5,44.49976015625Q1.6328179999999999,44.49976015625,1.761032,44.465060156250004Q1.889246,44.43046015625,2.003964,44.36346015625Q2.118683,44.29656015625,2.211952,44.201960156249996Q2.3052200000000003,44.10746015625,2.3705730000000003,43.99176015625Q2.371156,43.99076015625,2.3717449999999998,43.98976015625Q8.53981,33.07874415625,19.3701,34.49129015625Z" fill-rule="evenodd" fill="#FF9500" fill-opacity="1"/></g><g><path d="M5.64142,33.98995Q5.73007,33.977286,5.81505,33.949075Q5.90003,33.920864,5.97865,33.878003Q6.05727,33.835142,6.12703,33.778995Q6.19678,33.722848,6.25545,33.655202Q6.31412,33.587555,6.35984,33.510561Q6.40556,33.433567,6.43687,33.349676Q6.46818,33.265784,6.48409,33.177664Q6.5,33.0895444,6.5,33Q6.5,32.9015086,6.48079,32.80491Q6.46157,32.708311,6.42388,32.617317Q6.38619,32.526322,6.33147,32.44443Q6.27675,32.362537,6.20711,32.292893Q6.13746,32.223249,6.05557,32.16853Q5.97368,32.113812,5.88268,32.076121Q5.79169,32.03843,5.69509,32.019215Q5.59849,32,5.5,32Q5.42893,32,5.35858,32.010051Q1.2467489999999999,32.597455,0.05131399999999997,36.18387Q0,36.33781,0,36.50009Q0,36.59858,0.019214999999999982,36.69518Q0.038429999999999964,36.79177,0.076121,36.88277Q0.11381200000000002,36.97376,0.16852999999999996,37.05566Q0.22324900000000003,37.13755,0.29289299999999996,37.20719Q0.362537,37.27684,0.44443,37.33155Q0.526322,37.386269999999996,0.617317,37.42396Q0.708311,37.46166,0.80491,37.48087Q0.9015086,37.50009,1,37.50009Q1.0782249,37.50009,1.155498,37.48792Q1.232772,37.47576,1.307214,37.45173Q1.381656,37.42769,1.451455,37.39238Q1.521255,37.35706,1.584714,37.31133Q1.6481729999999999,37.26559,1.703748,37.21054Q1.759323,37.15549,1.805661,37.09246Q1.8519999999999999,37.02944,1.887975,36.95998Q1.92395,36.89052,1.948686,36.81631L1.949023,36.81529Q2.75385,34.40246,5.64142,33.98995Z" fill-rule="evenodd" fill="#FF9500" fill-opacity="1"/></g><g><path d="M52.817169,37.551631Q63.5394,41.12585,68.70609999999999,46.29189L68.7071,46.29289Q68.8478,46.43354,68.9239,46.61732Q69,46.80109,69,47Q69,47.09849,68.9808,47.19509Q68.9616,47.29169,68.9239,47.38268Q68.8862,47.47368,68.8315,47.55557Q68.7767,47.637460000000004,68.7071,47.70711Q68.6375,47.77675,68.5556,47.831469999999996Q68.4737,47.88619,68.3827,47.92388Q68.2917,47.96157,68.1951,47.980779999999996Q68.0985,48,68,48Q67.8011,48,67.6173,47.92388Q67.4335,47.84776,67.2929,47.70711L67.2924,47.7066Q62.45928,42.87386,52.183772,39.448684Q52.109562,39.423947,52.040101,39.387972Q51.97064,39.351996,51.907618,39.305658Q51.844596,39.259319,51.789546,39.203744Q51.734496,39.148169,51.688758,39.08471Q51.643019,39.021252,51.607705,38.951452Q51.57239,38.881653,51.548359,38.807212Q51.524327,38.73277,51.512164,38.655497Q51.5,38.5782243,51.5,38.5Q51.5,38.4015086,51.519215,38.30491Q51.53843,38.208311,51.576121,38.117317Q51.613812,38.026322,51.66853,37.94443Q51.723249,37.862537,51.792893,37.792893Q51.862537,37.723249,51.94443,37.66853Q52.026322,37.613812,52.117317,37.576121Q52.208311,37.53843,52.30491,37.519215Q52.4015086,37.5,52.5,37.5Q52.662787,37.5,52.817169,37.551631Z" fill-rule="evenodd" fill="#FF9500" fill-opacity="1"/></g><g><path d="M47.00024414062499,36Q48.662184140625,35.99999,50.316214140625,36.551313Q50.390424140625,36.576049,50.459894140624996,36.612024Q50.529354140625,36.647999,50.592374140625,36.694338Q50.655394140625,36.740676,50.710444140625,36.796251Q50.765504140625,36.851826,50.811234140625,36.9152852Q50.856974140625,36.9787444,50.892294140625,37.0485441Q50.927604140625,37.118344,50.951644140625,37.192786Q50.975674140625,37.267228,50.987834140625,37.344501Q51.000004140625,37.421775,51.000004140625,37.5Q51.000004140625,37.598491,50.980784140625,37.69509Q50.961574140625,37.791689,50.923884140625,37.882683Q50.886184140625,37.973678,50.831464140625,38.05557Q50.776754140625,38.13746,50.707104140625,38.20711Q50.637464140625,38.27675,50.555574140625,38.33147Q50.473674140625,38.38619,50.382684140625,38.42388Q50.291684140625,38.46157,50.195094140625,38.48079Q50.098494140625,38.5,50.000004140625,38.5Q49.837724140625,38.5,49.683784140625,38.44869Q48.337644140625,37.999989,47.000252129635,38L47.000244140625,38Q46.901752740625,38,46.805154140625,37.980785Q46.708555140625,37.96157,46.617561140625,37.923879Q46.526566140625,37.886188,46.444674140625,37.83147Q46.362781140625,37.776751,46.293137140625,37.707107Q46.223493140625,37.637463,46.168774140625,37.55557Q46.114056140625,37.473678,46.076365140625,37.382683Q46.038674140625,37.291689,46.019459140625,37.19509Q46.000244140625,37.0984914,46.000244140625,37Q46.000244140625,36.9015091,46.019459140625,36.804911Q46.038673140625,36.708312,46.076364140625,36.617318Q46.114054140625,36.526325,46.168773140625,36.444432Q46.223491140625,36.36254,46.293134140625,36.292896Q46.362778140625,36.223252,46.444670140625,36.168533Q46.526562140625,36.113814,46.617555140625,36.076123Q46.708549140625,36.038431,46.805147140625,36.019216Q46.901745240625,36.000001,47.000236151605,36L47.00024414062499,36Z" fill-rule="evenodd" fill="#FF9500" fill-opacity="1"/></g></g></svg>