<svg xmlns="http://www.w3.org/2000/svg" xmlns:xlink="http://www.w3.org/1999/xlink" fill="none" version="1.1" width="65" height="64" viewBox="0 0 65 64"><g><g><path d="M0.34416,3.1216999999999997Q0.17595000000000005,2.873384,0.08797999999999995,2.5866540000000002Q0,2.299923,0,2Q0,1.9017463000000001,0.009630000000000027,1.803966Q0.019260000000000055,1.706185,0.038429999999999964,1.6098189999999999Q0.057600000000000096,1.513454,0.08611999999999997,1.4194309999999999Q0.11464000000000008,1.325408,0.15223999999999993,1.234633Q0.18984,1.143859,0.23615999999999993,1.057207Q0.28247,0.97055,0.3370599999999999,0.88886Q0.39165000000000005,0.8071600000000001,0.45398000000000005,0.7312099999999999Q0.51631,0.65526,0.58579,0.58579Q0.65526,0.51631,0.7312099999999999,0.45398000000000005Q0.8071600000000001,0.39165000000000005,0.88886,0.3370599999999999Q0.97055,0.28247,1.057207,0.23615999999999993Q1.143859,0.18984,1.234633,0.15223999999999993Q1.325408,0.11464000000000008,1.4194309999999999,0.08611999999999997Q1.513454,0.057600000000000096,1.6098189999999999,0.038429999999999964Q1.706185,0.019260000000000055,1.803966,0.009630000000000027Q1.9017463000000001,0,2,0Q2.245062,0,2.482874,0.059169999999999945Q2.720687,0.11833000000000005,2.937179,0.2331700000000001Q3.15367,0.3480000000000001,3.33603,0.5117100000000001Q3.51839,0.6754100000000001,3.65584,0.8783000000000001Q8.31086,7.75,13.625,7.75Q19.1523,7.75,26.0628,0.6091599999999999Q26.2027,0.4646300000000001,26.3685,0.3508500000000001Q26.5343,0.23706000000000005,26.7195,0.15857999999999994Q26.9047,0.08009,27.1018,0.040040000000000076Q27.2989,0,27.5,0Q27.5983,0,27.696,0.009630000000000027Q27.7938,0.019260000000000055,27.8902,0.038429999999999964Q27.9865,0.057600000000000096,28.0806,0.08611999999999997Q28.1746,0.11464000000000008,28.2654,0.15223999999999993Q28.3561,0.18984,28.4428,0.23615999999999993Q28.5294,0.28247,28.6111,0.3370599999999999Q28.6928,0.39165000000000005,28.7688,0.45398000000000005Q28.8447,0.51631,28.9142,0.58579Q28.9837,0.65526,29.046,0.7312099999999999Q29.1084,0.8071600000000001,29.1629,0.88886Q29.2175,0.97055,29.2638,1.057207Q29.3102,1.143859,29.3478,1.234633Q29.3854,1.325408,29.4139,1.4194309999999999Q29.4424,1.513454,29.4616,1.6098189999999999Q29.4807,1.706185,29.4904,1.803966Q29.5,1.9017463000000001,29.5,2Q29.5,2.192846,29.4632,2.382139Q29.4263,2.571432,29.354,2.750197Q29.2816,2.928962,29.1765,3.09061Q29.0713,3.2522599999999997,28.9372,3.39084Q20.8477,11.75,13.625,11.75Q6.18914,11.75,0.34416,3.1216999999999997Z" fill-rule="evenodd" fill="#42C700" fill-opacity="1"/></g><g><path d="M29.495861064453123,2.628764Q29.500011064453126,2.5644489,29.500011064453126,2.5Q29.500011064453126,2.4017463,29.490381064453125,2.303966Q29.480751064453123,2.206185,29.461581064453124,2.109819Q29.442411064453125,2.013454,29.413891064453125,1.9194309999999999Q29.385371064453125,1.825408,29.347771064453124,1.734633Q29.310171064453126,1.643859,29.263851064453124,1.557207Q29.217531064453127,1.47055,29.162951064453125,1.38886Q29.108361064453124,1.30716,29.046031064453125,1.23121Q28.983701064453125,1.15526,28.914221064453123,1.08579Q28.844741064453125,1.01631,28.768791064453126,0.95398Q28.692841064453127,0.89165,28.611151064453125,0.8370599999999999Q28.529451064453124,0.78247,28.442801064453125,0.7361599999999999Q28.356149064453124,0.68984,28.265374064453123,0.6522399999999999Q28.174600064453124,0.6146400000000001,28.080577064453124,0.58612Q27.986554064453124,0.5576000000000001,27.890188064453124,0.53843Q27.793822064453124,0.51926,27.696042064453124,0.50963Q27.598261064453126,0.5,27.500008064453127,0.5Q27.405789964453124,0.5,27.311989464453124,0.5088600000000001Q27.218189064453124,0.5177099999999999,27.125637064453127,0.53535Q27.033084064453124,0.5529900000000001,26.942600064453124,0.57925Q26.852115064453123,0.6054999999999999,26.764500064453124,0.64015Q26.676885064453124,0.6748000000000001,26.592915064453123,0.7175400000000001Q26.508945064453126,0.76027,26.429364064453125,0.8107Q26.349781064453126,0.86114,26.275301064453124,0.9188400000000001Q26.200811064453124,0.9765299999999999,26.132081064453125,1.04097Q26.063341064453127,1.10541,26.000971064453125,1.17603Q25.938601064453124,1.24665,25.883141064453124,1.32282Q25.827691064453123,1.39899,25.779641064453124,1.48003Q25.731591064453124,1.561075,25.691371064453126,1.6462780000000001Q25.651151064453124,1.73148,25.619121064453125,1.820087Q25.587091064453126,1.908693,25.563541064453126,1.999918Q25.539981064453126,2.0911429999999998,25.525101064453125,2.184178Q25.510221064453127,2.277214,25.504161064453125,2.371236Q24.404441064453124,19.417,34.25107106445313,22.6502Q43.46364106445313,25.6752,61.981741064453125,15.2425Q62.09704106445312,15.1775,62.202841064453125,15.0979Q62.30864106445313,15.0182,62.40304106445313,14.9253Q62.497341064453124,14.8325,62.57864106445312,14.7279Q62.65994106445312,14.6234,62.72674106445312,14.5091Q62.79354106445312,14.3948,62.844741064453125,14.2727Q62.89584106445312,14.1505,62.93044106445313,14.0227Q62.96514106445313,13.8949,62.98254106445312,13.7637Q63.00004106445312,13.6324,63.00004106445312,13.5Q63.00004106445312,13.4017,62.990341064453126,13.304Q62.98074106445313,13.2062,62.96154106445312,13.1098Q62.94244106445313,13.0135,62.91384106445312,12.9194Q62.88534106445312,12.8254,62.847741064453125,12.7346Q62.81014106445313,12.6439,62.763841064453125,12.5572Q62.71754106445312,12.47055,62.66294106445312,12.38886Q62.60834106445313,12.30717,62.54604106445313,12.23121Q62.48374106445313,12.15526,62.41424106445312,12.08579Q62.344741064453125,12.01631,62.26884106445313,11.95398Q62.19284106445313,11.89165,62.11114106445312,11.83706Q62.029441064453124,11.78247,61.94284106445313,11.73616Q61.856141064453126,11.68984,61.765341064453125,11.65224Q61.67464106445313,11.61464,61.58054106445312,11.58612Q61.48654106445313,11.5576,61.390141064453125,11.53843Q61.293841064453126,11.51926,61.19604106445313,11.50963Q61.09824106445313,11.5,61.00004106445312,11.5Q60.742041064453126,11.5,60.49254106445313,11.56545Q60.243041064453124,11.63089,60.018341064453125,11.75751Q43.036341064453126,21.3248,35.498951064453124,18.8498Q28.595581064453125,16.583,29.495861064453123,2.628764Z" fill-rule="evenodd" fill="#42C700" fill-opacity="1"/></g><g><path d="M62.801559423828124,15.01851Q62.96585942382812,14.87769,63.09615942382813,14.705Q63.22655942382812,14.5323,63.31695942382812,14.335714Q63.40745942382813,14.139129,63.45365942382813,13.927755Q63.49995942382812,13.716381,63.49995942382812,13.5Q63.49995942382812,13.4017463,63.490359423828124,13.303966Q63.48065942382813,13.206185,63.46155942382812,13.109819Q63.44235942382812,13.013454,63.41385942382813,12.919431Q63.38535942382812,12.825408,63.34775942382812,12.734633Q63.310159423828125,12.643858999999999,63.26385942382812,12.557207Q63.217459423828124,12.47055,63.162859423828124,12.38886Q63.10835942382813,12.30716,63.04595942382812,12.23121Q62.98365942382813,12.15526,62.914159423828124,12.08579Q62.844659423828126,12.01631,62.76875942382813,11.95398Q62.69275942382812,11.89165,62.611059423828124,11.83706Q62.52945942382813,11.78247,62.44275942382812,11.73616Q62.356159423828124,11.68984,62.26535942382813,11.652239999999999Q62.17455942382813,11.61464,62.08055942382812,11.58612Q61.986559423828126,11.5576,61.89015942382812,11.53843Q61.79375942382812,11.51926,61.69595942382813,11.50963Q61.598259423828125,11.5,61.49995942382812,11.5Q61.322359423828125,11.5,61.147459423828124,11.5313Q60.97265942382813,11.5626,60.806059423828124,11.62423Q60.63945942382813,11.68585,60.48635942382813,11.77587Q60.333259423828125,11.86589,60.19835942382812,11.98149Q43.87037642382813,25.9769,42.76808942382812,34.106300000000005Q42.101329423828126,39.0236,46.31683942382813,41.875299999999996Q49.930949423828125,44.3202,57.31885942382812,44.9918Q57.409259423828125,45,57.49995942382812,45Q57.598259423828125,45,57.69595942382813,44.9904Q57.79375942382812,44.9807,57.89015942382812,44.961600000000004Q57.986559423828126,44.9424,58.08055942382813,44.9139Q58.17455942382813,44.885400000000004,58.26535942382812,44.8478Q58.356159423828124,44.810199999999995,58.44275942382812,44.7638Q58.52945942382813,44.7175,58.611059423828124,44.6629Q58.69275942382812,44.6084,58.76875942382813,44.546Q58.844659423828126,44.4837,58.914159423828124,44.4142Q58.98365942382813,44.3447,59.04595942382812,44.2688Q59.10835942382813,44.1928,59.162859423828124,44.1111Q59.217459423828124,44.029399999999995,59.26385942382812,43.9428Q59.310159423828125,43.8561,59.34775942382812,43.7654Q59.38535942382813,43.6746,59.41385942382813,43.580600000000004Q59.44235942382812,43.4865,59.46155942382813,43.3902Q59.48065942382813,43.293800000000005,59.490359423828124,43.196Q59.49995942382812,43.098299999999995,59.49995942382812,43Q59.49995942382812,42.907399999999996,59.491459423828125,42.815200000000004Q59.482859423828124,42.7231,59.46585942382812,42.6321Q59.44875942382812,42.5411,59.42345942382813,42.452Q59.39805942382812,42.363,59.364559423828126,42.276700000000005Q59.331159423828126,42.1904,59.289859423828126,42.1075Q59.24845942382812,42.024699999999996,59.19975942382813,41.946Q59.15095942382813,41.8674,59.095059423828125,41.7935Q59.03925942382813,41.7197,58.976859423828124,41.6513Q58.914359423828124,41.583,58.84595942382813,41.520700000000005Q58.77745942382813,41.4584,58.70345942382812,41.402699999999996Q58.62955942382813,41.346900000000005,58.550759423828126,41.2983Q58.47205942382813,41.249700000000004,58.389159423828126,41.2085Q58.30615942382813,41.1674,58.219859423828126,41.134Q58.13345942382813,41.1007,58.044359423828126,41.075500000000005Q57.955259423828124,41.0503,57.86425942382812,41.033500000000004Q57.77325942382812,41.0166,57.681059423828124,41.0082Q51.318959423828126,40.4298,48.558079423828126,38.562200000000004Q46.398579423828124,37.1014,46.73181942382813,34.643699999999995Q47.629549423828124,28.0231,62.801559423828124,15.01851Z" fill-rule="evenodd" fill="#42C700" fill-opacity="1"/></g><g><path d="M57.94724214355469,43.894427Q58.071822143554684,43.832138,58.17463214355469,43.738175Q58.27745214355468,43.644213,58.350682143554685,43.525731Q58.423902143554685,43.407249,58.461962143554686,43.273267Q58.50003214355469,43.139284,58.50002214355469,43Q58.50002214355469,42.9015086,58.48081214355469,42.80491Q58.46159214355469,42.708311,58.423902143554685,42.617317Q58.38621214355469,42.526322,58.331492143554684,42.44443Q58.27677214355469,42.362537,58.20713214355469,42.292893Q58.13749214355469,42.223249,58.05559214355469,42.16853Q57.97370214355469,42.113812,57.882712143554684,42.076121Q57.79171214355469,42.03843,57.69511214355469,42.019215Q57.59852214355469,42,57.50002214355469,42Q57.263962143554686,42,57.05281214355469,42.105573L57.05137214355469,42.106295Q50.128425143554686,45.56828,48.89942814355469,51.03049Q47.683932143554685,56.4327,52.152682143554685,63.531Q52.153242143554685,63.5319,52.15379214355469,63.5328Q52.22133214355469,63.640100000000004,52.31351214355469,63.7271Q52.40569214355469,63.8142,52.51668214355469,63.8754Q52.627682143554686,63.9367,52.75045214355469,63.9684Q52.87323214355469,64,53.00002214355469,64Q53.09852214355469,64,53.19511214355469,63.9808Q53.29171214355469,63.961600000000004,53.382712143554684,63.9239Q53.47370214355469,63.8862,53.55559214355469,63.8315Q53.63749214355469,63.776700000000005,53.70713214355469,63.7071Q53.77677214355469,63.6375,53.831492143554684,63.5556Q53.88621214355469,63.4737,53.923902143554685,63.3827Q53.96159214355469,63.2917,53.98081214355469,63.1951Q54.00002214355469,63.0985,54.00002214355469,63Q54.00002214355469,62.7114,53.84626214355469,62.4672Q49.81629314355469,56.0666,50.85065214355469,51.46951Q51.871522143554685,46.93229,57.94724214355469,43.894427Z" fill-rule="evenodd" fill="#42C700" fill-opacity="1"/></g><g><path d="M32.933357373046874,6.3589780000000005Q33.00001737304687,6.185677,33.00001737304687,6Q33.00001737304687,5.9015086,32.980797373046876,5.80491Q32.961587373046875,5.708311,32.92389737304688,5.617317Q32.886197373046876,5.526322,32.831487373046876,5.44443Q32.77676737304687,5.362537,32.70711737304688,5.292893Q32.63747737304688,5.223249,32.555587373046876,5.16853Q32.47368737304687,5.113812,32.382697373046874,5.076121Q32.291707373046876,5.03843,32.19510737304687,5.019215Q32.098505373046876,5,32.000013373046876,5Q31.924516373046874,5,31.849875373046874,5.011335Q31.775233373046873,5.02267,31.703140373046875,5.045083Q31.631046373046875,5.067496,31.563135373046876,5.100479Q31.495224373046874,5.133462,31.433034373046876,5.176268Q31.370845373046876,5.219073,31.315787373046874,5.27073Q31.260729373046875,5.322387,31.214051773046876,5.381725Q31.167373773046876,5.441063,31.130133873046876,5.506737Q31.092893873046876,5.57241,31.065936073046874,5.64293Q29.696407373046874,9.20484,30.382795373046875,11.58914Q31.118092373046874,14.14333,34.03714737304688,15.19119Q39.19485737304687,17.0427,51.734757373046875,13.97207L51.73725737304687,13.97145L51.73785737304688,13.9713Q51.818857373046875,13.95147,51.89535737304688,13.918510000000001Q51.97195737304688,13.88555,52.04205737304687,13.84037Q52.11205737304687,13.79519,52.17365737304688,13.73904Q52.23525737304688,13.68288,52.286757373046875,13.61731Q52.338157373046876,13.55173,52.37805737304687,13.47853Q52.417957373046875,13.405339999999999,52.445157373046875,13.32656Q52.47245737304688,13.24777,52.486257373046875,13.16556Q52.50005737304687,13.083359999999999,52.50005737304687,13Q52.50005737304687,12.90151,52.48075737304687,12.80491Q52.46155737304687,12.70831,52.42385737304687,12.61732Q52.38615737304687,12.52632,52.331457373046874,12.44443Q52.27675737304688,12.36254,52.207157373046876,12.29289Q52.13745737304687,12.22325,52.055557373046874,12.16853Q51.973657373046876,12.11381,51.882657373046875,12.07612Q51.791657373046874,12.03843,51.69505737304688,12.019210000000001Q51.59845737304688,12,51.50005737304687,12Q51.37935737304687,12,51.262157373046875,12.0287Q39.304557373046876,14.95709,34.71287737304687,13.3088Q32.75694737304688,12.606670000000001,32.304737373046876,11.03586Q31.803815373046874,9.2958,32.933357373046874,6.3589780000000005Z" fill-rule="evenodd" fill="#42C700" fill-opacity="1"/></g><g><path d="M64.6441,19.264911Q64.7277,19.194511,64.7942,19.107713Q64.8606,19.020916,64.9067,18.92182Q64.9528,18.822724,64.9764,18.71601Q65,18.609295,65,18.5Q65,18.4015086,64.9808,18.30491Q64.9616,18.208311,64.9239,18.117317Q64.8862,18.026322,64.8315,17.94443Q64.7767,17.862537,64.7071,17.792893Q64.6375,17.723249,64.5556,17.66853Q64.4737,17.613812,64.3827,17.576121Q64.2917,17.538429999999998,64.1951,17.519215Q64.0985,17.5,64,17.5Q63.8232,17.5,63.6572,17.56061Q63.4911,17.621219,63.3559,17.735092L63.3548,17.736002Q53.67667,25.88613,52.081653,29.6042L52.081038,29.6057L52.080855,29.606099999999998L53.919145,30.393900000000002L64.6441,19.264911Z" fill-rule="evenodd" fill="#42C700" fill-opacity="1"/></g><g><path d="M49.186267,35.081238Q49.095409,34.954038,49.047705,34.805177Q49,34.656317,49,34.5Q49,34.4015086,49.019215,34.30491Q49.03843,34.208311,49.076121,34.117317Q49.113812,34.026322,49.16853,33.94443Q49.223249,33.862537,49.292893,33.792893Q49.362537,33.723249,49.44443,33.66853Q49.526322,33.613812,49.617317,33.576121Q49.708311,33.53843,49.80491,33.519215Q49.9015086,33.5,50,33.5Q50.119381,33.5,50.235406,33.528103Q50.351432,33.556206,50.457582,33.610832Q50.563731,33.665459,50.654038,33.743538Q50.744345,33.821618,50.813733,33.918762Q51.99609,35.57406,52.908500000000004,36.37242Q53.62574,37,54,37Q54.09849,37,54.19509,37.01921Q54.29169,37.03843,54.38268,37.07612Q54.47368,37.11381,54.55557,37.16853Q54.63746,37.22325,54.70711,37.29289Q54.77675,37.36254,54.83147,37.44443Q54.88619,37.52632,54.92388,37.61732Q54.96157,37.70831,54.98078,37.80491Q55,37.90151,55,38Q55,38.09849,54.98078,38.19509Q54.96157,38.29169,54.92388,38.38268Q54.88619,38.47368,54.83147,38.55557Q54.77675,38.63746,54.70711,38.70711Q54.63746,38.77675,54.55557,38.83147Q54.47368,38.88619,54.38268,38.92388Q54.29169,38.96157,54.19509,38.98078Q54.09849,39,54,39L53.99724,39Q52.87269,38.99862,51.591499999999996,37.87758Q50.504026,36.92604,49.186548,35.081632L49.186314,35.081305L49.186267,35.081238Z" fill-rule="evenodd" fill="#42C700" fill-opacity="1"/></g></g></svg>