<svg xmlns="http://www.w3.org/2000/svg" xmlns:xlink="http://www.w3.org/1999/xlink" fill="none" version="1.1" width="24" height="24" viewBox="0 0 24 24"><defs><clipPath id="master_svg0_50_3788/36_5618/36_5603/36_5588"><rect x="0" y="0" width="24" height="24" rx="0"/></clipPath></defs><g clip-path="url(#master_svg0_50_3788/36_5618/36_5603/36_5588)"><g><path d="M4,4C3.73478,4,3.48043,4.10536,3.29289,4.29289C3.10536,4.48043,3,4.734780000000001,3,5C3,5,3,19,3,19C3,19.2652,3.10536,19.5196,3.29289,19.7071C3.48043,19.8946,3.73478,20,4,20C4,20,20,20,20,20C20.2652,20,20.5196,19.8946,20.7071,19.7071C20.8946,19.5196,21,19.2652,21,19C21,19,21,8,21,8C21,7.73478,20.8946,7.48043,20.7071,7.29289C20.5196,7.10536,20.2652,7,20,7C20,7,11,7,11,7C10.66565,7,10.35342,6.8329,10.16795,6.5547C10.16795,6.5547,8.46482,4,8.46482,4C8.46482,4,4,4,4,4C4,4,4,4,4,4ZM1.8786800000000001,2.87868C2.44129,2.31607,3.20435,2,4,2C4,2,9,2,9,2C9.33435,2,9.64658,2.167101,9.83205,2.4453C9.83205,2.4453,11.5352,5,11.5352,5C11.5352,5,20,5,20,5C20.7957,5,21.5587,5.31607,22.1213,5.87868C22.6839,6.44129,23,7.20435,23,8C23,8,23,19,23,19C23,19.7957,22.6839,20.5587,22.1213,21.1213C21.5587,21.6839,20.7957,22,20,22C20,22,4,22,4,22C3.20435,22,2.44129,21.6839,1.8786800000000001,21.1213C1.31607,20.5587,1,19.7957,1,19C1,19,1,5,1,5C1,4.20435,1.31607,3.44129,1.8786800000000001,2.87868C1.8786800000000001,2.87868,1.8786800000000001,2.87868,1.8786800000000001,2.87868Z" fill-rule="evenodd" fill="#000000" fill-opacity="1"/></g></g></svg>