<svg xmlns="http://www.w3.org/2000/svg" xmlns:xlink="http://www.w3.org/1999/xlink" fill="none" version="1.1" width="18" height="18" viewBox="0 0 18 18"><g><g><ellipse cx="9" cy="9" rx="9" ry="9" fill="#BDEE7E" fill-opacity="1"/></g><g><g><path d="M5,7.815392255783081L13,7.815392255783081Q13.09849,7.815392255783081,13.19509,7.834607255783081Q13.29169,7.853822255783081,13.38268,7.891513255783081Q13.47368,7.929204255783081,13.55557,7.983922255783081Q13.63746,8.03864125578308,13.70711,8.10828525578308Q13.77675,8.17792925578308,13.83147,8.259822255783082Q13.88619,8.341714255783081,13.92388,8.432709255783081Q13.96157,8.523703255783081,13.98078,8.62030225578308Q14,8.71690085578308,14,8.815392255783081Q14,8.913883655783081,13.98078,9.010482255783081Q13.96157,9.107081255783081,13.92388,9.198075255783081Q13.88619,9.28907025578308,13.83147,9.37096225578308Q13.77675,9.452855255783081,13.70711,9.522499255783082Q13.63746,9.592143255783082,13.55557,9.64686225578308Q13.47368,9.701580255783082,13.38268,9.73927125578308Q13.29169,9.776962255783081,13.19509,9.796177255783082Q13.09849,9.815392255783081,13,9.815392255783081L5,9.815392255783081Q4.9015086,9.815392255783081,4.80491,9.796177255783082Q4.708311,9.776962255783081,4.617317,9.73927125578308Q4.526322,9.701580255783082,4.44443,9.64686225578308Q4.362537,9.592143255783082,4.292893,9.522499255783082Q4.223249,9.452855255783081,4.16853,9.37096225578308Q4.113812,9.28907025578308,4.076121,9.198075255783081Q4.03843,9.107081255783081,4.019215,9.010482255783081Q4,8.913883655783081,4,8.815392255783081Q4,8.71690085578308,4.019215,8.62030225578308Q4.03843,8.523703255783081,4.076121,8.432709255783081Q4.113812,8.341714255783081,4.16853,8.259822255783082Q4.223249,8.17792925578308,4.292893,8.10828525578308Q4.362537,8.03864125578308,4.44443,7.983922255783081Q4.526322,7.929204255783081,4.617317,7.891513255783081Q4.708311,7.853822255783081,4.80491,7.834607255783081Q4.9015086,7.815392255783081,5,7.815392255783081Z" fill-rule="evenodd" fill="#FFFFFF" fill-opacity="1"/></g><g transform="matrix(0,1,-1,0,14.184615135192871,-4.184615135192871)"><path d="M9.184615135192871,4L17.18461513519287,4Q17.28310513519287,4,17.37970513519287,4.019215Q17.47630513519287,4.03843,17.56729513519287,4.076121Q17.658295135192873,4.113812,17.74018513519287,4.16853Q17.822075135192872,4.223249,17.89172513519287,4.292893Q17.96136513519287,4.362537,18.01608513519287,4.44443Q18.07080513519287,4.526322,18.10849513519287,4.617317Q18.146185135192873,4.708311,18.16539513519287,4.80491Q18.18461513519287,4.9015086,18.18461513519287,5Q18.18461513519287,5.0984914,18.16539513519287,5.19509Q18.146185135192873,5.291689,18.10849513519287,5.382683Q18.07080513519287,5.473678,18.01608513519287,5.55557Q17.96136513519287,5.637463,17.89172513519287,5.707107Q17.822075135192872,5.776751,17.74018513519287,5.83147Q17.658295135192873,5.886188,17.56729513519287,5.923879Q17.47630513519287,5.96157,17.37970513519287,5.980785Q17.28310513519287,6,17.18461513519287,6L9.184615135192871,6Q9.08612373519287,6,8.98952513519287,5.980785Q8.892926135192871,5.96157,8.801932135192871,5.923879Q8.710937135192871,5.886188,8.629045135192872,5.83147Q8.54715213519287,5.776751,8.47750813519287,5.707107Q8.40786413519287,5.637463,8.353145135192872,5.55557Q8.29842713519287,5.473678,8.260736135192872,5.382683Q8.223045135192871,5.291689,8.20383013519287,5.19509Q8.184615135192871,5.0984914,8.184615135192871,5Q8.184615135192871,4.9015086,8.20383013519287,4.80491Q8.223045135192871,4.708311,8.260736135192872,4.617317Q8.29842713519287,4.526322,8.353145135192872,4.44443Q8.40786413519287,4.362537,8.47750813519287,4.292893Q8.54715213519287,4.223249,8.629045135192872,4.16853Q8.710937135192871,4.113812,8.801932135192871,4.076121Q8.892926135192871,4.03843,8.98952513519287,4.019215Q9.08612373519287,4,9.184615135192871,4Z" fill-rule="evenodd" fill="#FFFFFF" fill-opacity="1"/></g></g></g></svg>