<svg xmlns="http://www.w3.org/2000/svg" xmlns:xlink="http://www.w3.org/1999/xlink" fill="none" version="1.1" width="12.089628219604492" height="11.666666984558105" viewBox="0 0 12.089628219604492 11.666666984558105"><g><path d="M6.04481,11.6667C2.70626,11.6667,0,9.05508,0,5.83333C0,2.61158,2.70626,0,6.04481,0C9.38336,0,12.0896,2.61158,12.0896,5.83333C12.0896,9.05508,9.38336,11.6667,6.04481,11.6667ZM5.21184,3.74208C5.13771,3.69436,5.0424,3.68984,4.96379,3.73034C4.88518,3.77083,4.83602,3.84976,4.83585,3.93575L4.83585,7.73092C4.83602,7.81691,4.88518,7.89584,4.96379,7.93633C5.0424,7.97682,5.13771,7.97231,5.21184,7.92458L8.1611,6.02758C8.30488,5.93525,8.30488,5.73142,8.1611,5.63908L5.21123,3.74208L5.21184,3.74208Z" fill="#FFFFFF" fill-opacity="1" style="mix-blend-mode:passthrough"/></g></svg>