<svg xmlns="http://www.w3.org/2000/svg" xmlns:xlink="http://www.w3.org/1999/xlink" fill="none" version="1.1" width="6.000000223483369" height="10.00000013409003" viewBox="0 0 6.000000223483369 10.00000013409003"><g transform="matrix(-1,2.2348338291067193e-8,2.2348338291067193e-8,1,12,-1.3409002974640316e-7)"><path d="M11.78033,1.21936C12.07322,0.940418,12.07322,0.488155,11.78033,0.209209C11.48744,-0.0697364,11.01257,-0.0697364,10.71967,0.209209C10.71967,0.209209,11.78033,1.21936,11.78033,1.21936C11.78033,1.21936,11.78033,1.21936,11.78033,1.21936ZM6.75,5.00001C6.75,5.00001,6.219669,4.49493,6.219669,4.49493C5.9267769,4.77388,5.9267769,5.22614,6.219669,5.50509C6.219669,5.50509,6.75,5.00001,6.75,5.00001C6.75,5.00001,6.75,5.00001,6.75,5.00001ZM10.71967,9.7908C11.01257,10.0697,11.48744,10.0697,11.78033,9.7908C12.07322,9.51187,12.07322,9.05959,11.78033,8.78066C11.78033,8.78066,10.71967,9.7908,10.71967,9.7908C10.71967,9.7908,10.71967,9.7908,10.71967,9.7908ZM10.71967,0.209209C10.71967,0.209209,6.219669,4.49493,6.219669,4.49493C6.219669,4.49493,7.28033,5.50509,7.28033,5.50509C7.28033,5.50509,11.78033,1.21936,11.78033,1.21936C11.78033,1.21936,10.71967,0.209209,10.71967,0.209209C10.71967,0.209209,10.71967,0.209209,10.71967,0.209209ZM6.219669,5.50509C6.219669,5.50509,10.71967,9.7908,10.71967,9.7908C10.71967,9.7908,11.78033,8.78066,11.78033,8.78066C11.78033,8.78066,7.28033,4.49493,7.28033,4.49493C7.28033,4.49493,6.219669,5.50509,6.219669,5.50509C6.219669,5.50509,6.219669,5.50509,6.219669,5.50509Z" fill="#000000" fill-opacity="0.6000000238418579"/></g></svg>