<svg xmlns="http://www.w3.org/2000/svg" xmlns:xlink="http://www.w3.org/1999/xlink" fill="none" version="1.1" width="14.440109252929688" height="14.434011459350586" viewBox="0 0 14.440109252929688 14.434011459350586"><g><path d="M12.2363,0.880042C12.6719,0.878015,13.0805,1.09154,13.3275,1.45042L13.3718,1.51867L13.3976,1.56142L13.4779,1.72717L13.5379,1.93942L13.5596,2.11604L13.5596,2.27804L13.5484,2.37029L13.5371,2.43892L13.0943,4.81229L13.0875,4.85767L13.0864,4.89142L13.0886,4.91129L13.0928,4.93079L13.1036,4.96079L13.1224,4.99904L14.3036,7.16804L14.3576,7.29254L14.3734,7.34092C14.6021,8.03393,14.2237,8.78082,13.5296,9.00629L13.4524,9.02879L13.3616,9.04867L13.293,9.05992L10.9024,9.37117L10.8544,9.37867L10.8214,9.38879L10.803,9.39704L10.7858,9.40679L10.7573,9.42854L10.7299,9.45517L9.03226,11.2499L8.93025,11.3399L8.88938,11.3699C8.30095,11.8019,7.47338,11.6729,7.04438,11.0823L6.99938,11.0152L6.96376,10.9555L6.92063,10.873L6.52201,10.033L2.55263,14.0028L2.50388,14.0489L2.47201,14.0767L2.41951,14.1205C1.82326,14.5878,0.97463,14.5229,0.443255,13.9912C-0.0708699,13.477,-0.149245,12.6674,0.268505,12.0749L0.313505,12.0145L0.357005,11.962L0.384755,11.9305L0.431255,11.8814L4.39801,7.91429L3.52126,7.49767L3.40426,7.42867L3.36301,7.39904C2.77069,6.97283,2.63784,6.14627,3.06676,5.55592L3.11626,5.49179L3.16163,5.43967L3.22688,5.37329L4.98451,3.70942L5.01301,3.68054L5.03326,3.65429L5.04301,3.63667L5.05126,3.61867L5.06138,3.58454L5.06776,3.54517L5.38651,1.09679L5.41651,0.964416L5.43151,0.916041C5.65384,0.221099,6.39881,-0.160632,7.09276,0.0647906L7.16926,0.0917907L7.25438,0.129291L7.31626,0.160416L9.44363,1.31917L9.47775,1.33567L9.50925,1.34692L9.52875,1.35104L9.54863,1.35329L9.58238,1.35254L9.62025,1.34654L12.0503,0.893165L12.1856,0.880416L12.2363,0.880042L12.2363,0.880042ZM5.74613,8.68754L5.72213,8.66729L5.69438,8.65079L5.3985,8.50454L1.22701,12.6772L1.19926,12.7087C1.09728,12.8443,1.10146,13.0322,1.20938,13.1632L1.23863,13.1958L1.27126,13.225C1.39067,13.3231,1.55848,13.3366,1.69201,13.2588L1.72576,13.2352L1.75726,13.2074L5.92875,9.03517L5.78288,8.73967L5.76638,8.71192L5.74613,8.68754L5.74613,8.68754ZM12.3881,2.07142C12.3591,2.03785,12.3194,2.01533,12.2756,2.00767L12.2419,2.00504L12.2078,2.00842L9.80963,2.45617L9.71813,2.47004C9.50479,2.49478,9.28863,2.46803,9.08776,2.39204L9.00301,2.35642L8.9205,2.31517L6.77813,1.14854L6.75675,1.13842C6.66569,1.10241,6.56212,1.1407,6.51638,1.22729L6.50325,1.25842L6.49575,1.29217L6.18075,3.71092L6.16575,3.80242C6.12331,4.01306,6.03098,4.21045,5.8965,4.37804L5.8365,4.44779L5.77163,4.51342L4.00013,6.19042L3.984,6.20767C3.92178,6.28306,3.92614,6.39318,3.99413,6.46342L4.01963,6.48592L4.04963,6.50317L6.25275,7.55054L6.33525,7.59329C6.41663,7.63904,6.49275,7.69304,6.56213,7.75379L6.62925,7.81754C6.6945,7.88279,6.75263,7.95479,6.80325,8.03279L6.85088,8.11267L6.8895,8.18729L7.93688,10.3904L7.94813,10.411L7.962,10.4298L7.97813,10.4474L8.0055,10.4688C8.0625,10.5063,8.13488,10.51,8.19488,10.48L8.22375,10.4628L8.24963,10.4399L9.92625,8.66842L9.99225,8.60354C10.1505,8.45729,10.341,8.35229,10.548,8.29604L10.638,8.27467L10.7288,8.25967L13.1475,7.94429L13.1708,7.93979C13.2658,7.9155,13.3272,7.8235,13.3133,7.72642L13.3054,7.69379L13.2915,7.66192L12.1249,5.51992L12.0836,5.43742C11.9939,5.24209,11.9524,5.02811,11.9625,4.81342L11.97,4.72154L11.9839,4.63042L12.4316,2.23229L12.4346,2.20904L12.4346,2.18542L12.4316,2.16179L12.4223,2.12842L12.4073,2.09842L12.3881,2.07142Z" fill="#FFFFFF" fill-opacity="1" style="mix-blend-mode:passthrough"/></g></svg>