<svg xmlns="http://www.w3.org/2000/svg" xmlns:xlink="http://www.w3.org/1999/xlink" fill="none" version="1.1" width="20" height="20" viewBox="0 0 20 20"><defs><clipPath id="master_svg0_134_07634"><rect x="0" y="0" width="20" height="20" rx="0"/></clipPath></defs><g clip-path="url(#master_svg0_134_07634)"><g><path d="M5.181267734375,6.0687627343749995C4.936513934375,5.823635734375,4.936667234375,5.426552734375,5.181609734375,5.181609734375C5.426552734375,4.936667234375,5.823635734375,4.936513934375,6.0687627343749995,5.181267734375L14.818762734375,13.931272734375C15.063802734375,14.176342734375,15.063802734375,14.573692734375,14.818772734375,14.818772734375C14.573692734375,15.063802734375,14.176342734375,15.063802734375,13.931272734375,14.818762734375L5.181267734375,6.0687627343749995Z" fill="#E35656" fill-opacity="1" style="mix-blend-mode:passthrough"/></g><g><path d="M13.9312465234375,5.18136559375C14.1763165234375,4.93628959375,14.5736665234375,4.93628919375,14.8187465234375,5.18136559375C15.0638365234375,5.42644159375,15.0638365234375,5.82378959375,14.8187465234375,6.06886859375L6.0687465234375,14.81886859375C5.8236675234375,15.06395859375,5.4263195234375,15.06395859375,5.1812435234375,14.81886859375C4.9361675234375,14.57378859375,4.9361675234375,14.17643859375,5.1812435234375,13.93136859375L13.9312465234375,5.18136559375Z" fill="#E35656" fill-opacity="1" style="mix-blend-mode:passthrough"/></g></g></svg>