<svg xmlns="http://www.w3.org/2000/svg" xmlns:xlink="http://www.w3.org/1999/xlink" fill="none" version="1.1" width="14" height="14" viewBox="0 0 14 14"><defs><clipPath id="master_svg0_60_5586"><rect x="0" y="0" width="14" height="14" rx="0"/></clipPath></defs><g clip-path="url(#master_svg0_60_5586)"><g><path d="M9.3333740234375,2.33331298828125C9.6555440234375,2.33331298828125,9.9167040234375,2.59447998828125,9.9167040234375,2.91664598828125L9.9167040234375,5.366642988281249L12.9575740234375,3.23747898828125C13.0467740234375,3.17499898828125,13.1632740234375,3.16735098828125,13.2597740234375,3.21764298828125C13.3563740234375,3.26793398828125,13.4168740234375,3.3677929882812503,13.4166740234375,3.4766429882812497L13.4166740234375,10.52331298828125C13.4168740234375,10.63216298828125,13.3563740234375,10.73202298828125,13.2597740234375,10.78231298828125C13.1632740234375,10.83260298828125,13.0467740234375,10.82496298828125,12.9575740234375,10.76248298828125L9.9167040234375,8.63331298828125L9.9167040234375,11.08331298828125C9.9167040234375,11.40548298828125,9.6555440234375,11.66664298828125,9.3333740234375,11.66664298828125L1.1667070234375,11.66664298828125C0.8445410234374999,11.66664298828125,0.5833740234375,11.40548298828125,0.5833740234375,11.08331298828125L0.5833740234375,2.91664598828125C0.5833740234375,2.59447998828125,0.8445410234374999,2.33331298828125,1.1667070234375,2.33331298828125L9.3333740234375,2.33331298828125ZM4.3167040234375005,5.15023298828125C4.2058140234375,5.15020298828125,4.1102240234375,5.2282429882812504,4.0880440234375,5.3368929882812495L4.0833740234375,5.38298298828125L4.0833740234375,8.615812988281249C4.0833540234375,8.77915298828125,4.2468440234375,8.89196298828125,4.3995440234375,8.83398298828125L4.442124023437501,8.812982988281249L6.9825440234375,7.19598298828125C7.1093040234375,7.11488298828125,7.1272840234375,6.93677298828125,7.0192940234375,6.83198298828125L6.9825440234375,6.80281298828125L4.442124023437501,5.18581298828125C4.4044840234375,5.1624829882812495,4.3609840234375,5.15034298828125,4.3167040234375005,5.15023298828125L4.3167040234375005,5.15023298828125Z" fill="#FFFFFF" fill-opacity="1" style="mix-blend-mode:passthrough"/></g></g></svg>