<svg xmlns="http://www.w3.org/2000/svg" xmlns:xlink="http://www.w3.org/1999/xlink" fill="none" version="1.1" width="36" height="36" viewBox="0 0 36 36"><defs><linearGradient x1="0.20642149448394775" y1="0" x2="0.4570719301700592" y2="0.5" id="master_svg0_24_04416"><stop offset="0%" stop-color="#E5FF7D" stop-opacity="1"/><stop offset="100%" stop-color="#CFFD19" stop-opacity="1"/></linearGradient><linearGradient x1="0.8437288999557495" y1="0.3922223448753357" x2="0.15072788298130035" y2="0.8701380491256714" id="master_svg1_24_04417"><stop offset="0%" stop-color="#75F953" stop-opacity="1"/><stop offset="100%" stop-color="#CCFA64" stop-opacity="1"/></linearGradient></defs><g><g><rect x="0" y="0" width="36" height="36" rx="9" fill="url(#master_svg0_24_04416)" fill-opacity="1"/><rect x="0" y="0" width="36" height="36" rx="9" fill="url(#master_svg1_24_04417)" fill-opacity="1"/><rect x="0.5" y="0.5" width="35" height="35" rx="8.5" fill-opacity="0" stroke-opacity="0.7300000190734863" stroke="#FFFFFF" fill="none" stroke-width="1"/></g><g><g><g><path d="M10.83184,19.87988690055847L7.22342,18.520256900558472L7.4844,17.54505690055847L7.856450000000001,17.54170690055847L7.98515,17.058011900558473L7.60698,17.05949890055847L7.76443,16.43749690055847L6.366070000000001,16.444932840558472L5.95447,18.00346690055847L5.75748,17.92316690055847L6.0939499999999995,16.621903900558472L5.0324100000000005,16.615583900558473L4.417711,19.00952690055847L4,18.91583690055847L5.14924,20.25947690055847L5.51771,18.764146900558472L10.78834,20.87776690055847L11.46523,19.85014690055847L10.83184,19.87988690055847Z" fill="#0B0B0B" fill-opacity="1"/></g><g><path d="M17.737368225097654,18.015428694229126L19.458538225097655,15.431128694229127L18.614488225097656,15.437078694229125L19.631808225097657,13.541698694229126L15.775718225097656,13.572185394229127L15.569738225097655,14.049933694229125L17.638518225097656,14.040638694229125L18.051198225097657,14.037292694229127L17.041068225097657,15.932668694229125L17.827598225097656,15.926348694229127L17.174798225097657,16.914938694229125L16.704598225097655,15.995868694229125L17.316788225097657,14.406849694229127L16.015848225097656,14.414285694229125L14.405392225097657,18.614748694229128L14.038368225097656,18.657138694229126L15.118588225097657,20.172168694229125L16.115058225097656,17.548828694229126L16.390418225097655,18.087178694229127L15.842938225097656,18.930398694229126L16.372798225097657,20.075878694229125L16.959108225097655,19.199198694229125L18.704718225097658,22.579128694229126L20.072168225097656,21.776438694229128L19.644028225097657,21.730338694229125L17.737368225097654,18.015428694229126Z" fill="#0B0B0B" fill-opacity="1"/></g><g><path d="M28.511552877807617,16.923824310302734L26.813382877807616,16.950964710302735L25.808652877807617,20.558424310302733L28.588122877807617,18.945234310302734L27.92309287780762,18.950444310302736L28.511552877807617,16.923824310302734Z" fill="#0B0B0B" fill-opacity="1"/></g><g><path d="M31.15801383605957,15.775384186820984L32.82993383605957,13.512304186820984L31.19863383605957,13.525316786820984L29.52635383605957,15.788024186820984L31.15801383605957,15.775384186820984Z" fill="#0B0B0B" fill-opacity="1"/></g><g><path d="M32.37092032043457,21.73926847709656L31.19579032043457,16.601148477096558L32.56899032043457,16.590368477096558L32.69804032043457,16.10666847709656L28.72044032043457,16.13752847709656L29.41890032043457,13.507128477096558L27.34185032043457,13.524230777096557L27.66574032043457,13.736893477096558L27.024800320434572,16.150918477096557L25.93019332043457,16.159838477096557L25.80150032043457,16.64353847709656L29.50015032043457,16.61453847709656L30.99952032043457,22.999998477096558L33.00000032043457,21.814738477096558L32.37092032043457,21.73926847709656Z" fill="#0B0B0B" fill-opacity="1"/></g><g><path d="M25.509254072265627,15.85459L24.679944072265624,15.86091L25.903964072265623,13L23.820794072265624,13.0215637L24.272304072265626,13.313789L20.978424072265625,21.28791L22.834034072265624,20.21827L23.806414072265625,17.91467L23.446944072265623,21.97423L25.483734072265626,20.799L25.054884072265626,20.70383L25.509254072265627,15.85459Z" fill="#0B0B0B" fill-opacity="1"/></g><g><path d="M20.490591049194336,18.7995183757782L21.982771049194337,17.9273083757782L22.865651049194337,15.792868375778198L21.249803049194337,16.7308903757782L20.490591049194336,18.7995183757782Z" fill="#0B0B0B" fill-opacity="1"/></g><g><path d="M13.706206834869384,13.5167983845047L13.903926834869385,13.6569629845047L12.490464834869385,16.3751029845047L13.048366834869384,16.3706429845047L11.954126834869385,18.5017329845047L14.081866834869384,18.4857529845047L14.270586834869384,18.003542984504698L13.699376834869385,18.0054029845047L14.961136834869386,15.3768529845047L14.410426834869385,15.3813129845047L15.393586834869385,13.5052729845047L13.706206834869384,13.5167983845047Z" fill="#0B0B0B" fill-opacity="1"/></g><g><path d="M11.430709838867188,19.679231090454103L13.716609838867187,19.4847860904541L13.949919838867189,18.8955020904541L11.774368838867188,18.931193490454103L11.430709838867188,19.679231090454103Z" fill="#0B0B0B" fill-opacity="1"/></g><g><path d="M23.824367633972166,13.544335424900055L20.26771763397217,13.567386324900054L20.59663763397217,13.862586424900055L18.780207633972168,19.055725424900054L19.542295633972167,20.455135424900057L21.873857633972168,14.050339424900056L22.221467633972168,14.045506424900054L21.457577633972168,16.188495424900054L23.10110763397217,15.227795424900055L23.824367633972166,13.544335424900055Z" fill="#0B0B0B" fill-opacity="1"/></g><g><path d="M9.390686177597045,18.792456948242187L11.066206177597046,19.545326948242188L11.954826177597045,16.168746948242188L8.471150177597046,16.195887348242188L7.815826177597046,18.656756948242187L9.765266177597045,17.531346948242188L9.448566177597046,17.488966948242187L9.665686177597046,16.669916948242186L10.495716177597046,16.66322494824219L9.918756177597047,18.84710694824219L9.390686177597045,18.792456948242187Z" fill="#0B0B0B" fill-opacity="1"/></g><g><path d="M12.703977089996338,13.346484035253525L9.221732089996339,13.368419535253524L9.093399089996337,13.852116035253525L9.401110089996338,13.849514035253526L8.608107089996338,15.947144035253524L10.367017089996338,14.935504035253524L10.781497089996337,13.839104035253525L11.192737089996339,13.835386035253524L10.782577089996337,15.385374035253525L10.473067089996338,15.408054035253524L11.963097089996339,16.027824035253524L12.213287089996339,15.194274035253525L12.703977089996338,13.346484035253525Z" fill="#0B0B0B" fill-opacity="1"/></g><g><path d="M8.388120224399566,15.648609623212813L7.677800224399567,15.653069623212815L7.9603502243995665,14.596439623212815L8.589790224399566,14.592729623212815L8.717760224399566,14.111260623212814L8.088320224399567,14.116093623212814L8.318390224399566,13.248339623212814L6.489730224399567,13.256890753212815L6.7122502243995665,13.436092623212815L6.5307102243995665,14.120183623212814L5.413104224399566,14.127247623212813L5.284772224399567,14.610199623212814L6.401660224399567,14.604619623212814L6.123070224399567,15.661619623212815L4.931407224399567,15.667189623212813L4.805950224399567,16.145689623212814L8.260870224399566,16.127469623212814L8.388120224399566,15.648609623212813Z" fill="#0B0B0B" fill-opacity="1"/></g></g><g><g><path d="M28.588127267944337,20.55846140728662C28.798419267944336,20.55846140728662,28.989300267944337,20.646947156286622,29.127700267944334,20.78934225628662C29.265020267944337,20.932109256286623,29.350220267944337,21.12915625628662,29.350220267944337,21.346653256286622L29.350220267944337,21.34702425628662C29.350220267944337,21.56525925628662,29.265020267944337,21.76267925628662,29.126620267944336,21.90507925628662C28.989300267944337,22.04709925628662,28.798421267944335,22.13521925628662,28.588129267944336,22.13521925628662L28.587769267944335,22.13521925628662C28.377117267944335,22.13521925628662,28.186595267944337,22.04672925628662,28.048915267944334,21.904339256286622C27.910875967944335,21.76230925628662,27.826040267944336,21.56488925628662,27.826040267944336,21.347396256286622L27.826040267944336,21.34628125628662C27.826040267944336,21.12878425628662,27.911235867944335,20.93173725628662,28.049633267944337,20.78897025628662L28.048913267944336,20.78897025628662C28.186593267944335,20.646575056286622,28.377474267944336,20.55808925628662,28.587767267944336,20.55808925628662L28.588127267944337,20.55808925628662L28.588127267944337,20.55846140728662ZM28.588127267944337,20.639883156286622L28.588127267944337,20.64099845628662L28.587767267944336,20.64099845628662L28.587767267944336,20.639883156286622C28.399042267944335,20.639883156286622,28.229011267944337,20.71981725628662,28.104991267944335,20.84771225628662C27.980972267944335,20.97560825628662,27.904763367944337,21.152207256286623,27.904763367944337,21.34628125628662L27.905123167944335,21.34628125628662L27.905123167944335,21.347396256286622L27.904763367944337,21.347396256286622C27.904763367944337,21.542213256286622,27.980972267944335,21.718809256286622,28.104991267944335,21.846709256286623C28.229011267944337,21.97459925628662,28.399402267944335,22.05416925628662,28.587767267944336,22.05416925628662L28.588127267944337,22.05379925628662C28.776491267944337,22.05379925628662,28.946880267944337,21.97459925628662,29.070900267944335,21.84707925628662C29.194560267944336,21.719189256286622,29.271130267944336,21.54258525628662,29.271130267944336,21.34739725628662C29.271130267944336,21.15257925628662,29.194560267944336,20.975980256286622,29.070900267944335,20.84808525628662C28.946880267944337,20.72019025628662,28.775772267944337,20.640255856286622,28.588127267944337,20.640255856286622L28.588127267944337,20.639883156286622Z" fill-rule="evenodd" fill="#0B0B0B" fill-opacity="1"/></g><g><path d="M28.588127267944337,20.55846140728662C28.798419267944336,20.55846140728662,28.989300267944337,20.646947156286622,29.127700267944334,20.78934225628662C29.265020267944337,20.932109256286623,29.350220267944337,21.12915625628662,29.350220267944337,21.346653256286622L29.350220267944337,21.34702425628662C29.350220267944337,21.56525925628662,29.265020267944337,21.76267925628662,29.126620267944336,21.90507925628662C28.989300267944337,22.04709925628662,28.798421267944335,22.13521925628662,28.588129267944336,22.13521925628662L28.587769267944335,22.13521925628662C28.377117267944335,22.13521925628662,28.186595267944337,22.04672925628662,28.048915267944334,21.904339256286622C27.910875967944335,21.76230925628662,27.826040267944336,21.56488925628662,27.826040267944336,21.347396256286622L27.826040267944336,21.34628125628662C27.826040267944336,21.12878425628662,27.911235867944335,20.93173725628662,28.049633267944337,20.78897025628662L28.048913267944336,20.78897025628662C28.186593267944335,20.646575056286622,28.377474267944336,20.55808925628662,28.587767267944336,20.55808925628662L28.588127267944337,20.55808925628662L28.588127267944337,20.55846140728662ZM28.588127267944337,20.639883156286622L28.588127267944337,20.64099845628662L28.587767267944336,20.64099845628662L28.587767267944336,20.639883156286622C28.399042267944335,20.639883156286622,28.229011267944337,20.71981725628662,28.104991267944335,20.84771225628662C27.980972267944335,20.97560825628662,27.904763367944337,21.152207256286623,27.904763367944337,21.34628125628662L27.905123167944335,21.34628125628662L27.905123167944335,21.347396256286622L27.904763367944337,21.347396256286622C27.904763367944337,21.542213256286622,27.980972267944335,21.718809256286622,28.104991267944335,21.846709256286623C28.229011267944337,21.97459925628662,28.399402267944335,22.05416925628662,28.587767267944336,22.05416925628662L28.588127267944337,22.05379925628662C28.776491267944337,22.05379925628662,28.946880267944337,21.97459925628662,29.070900267944335,21.84707925628662C29.194560267944336,21.719189256286622,29.271130267944336,21.54258525628662,29.271130267944336,21.34739725628662C29.271130267944336,21.15257925628662,29.194560267944336,20.975980256286622,29.070900267944335,20.84808525628662C28.946880267944337,20.72019025628662,28.775772267944337,20.640255856286622,28.588127267944337,20.640255856286622L28.588127267944337,20.639883156286622Z" fill-rule="evenodd" fill="#0B0B0B" fill-opacity="1"/></g><g><path d="M29.030324300910948,21.795409708263396L28.89120730091095,21.795409708263396L28.58133930091095,21.377519708263396L28.34336630091095,21.377519708263396L28.34336630091095,21.795409708263396L28.24019730091095,21.795409708263396L28.24019730091095,20.866682708263397L28.65790830091095,20.866682708263397C28.84950930091095,20.875977418263396,28.95123930091095,20.959629808263397,28.96346230091095,21.117268708263396C28.96346230091095,21.2782527082634,28.87359330091095,21.3648797082634,28.69385530091095,21.377148708263398L29.03068430091095,21.795038708263398L29.030324300910948,21.795409708263396ZM28.34300730091095,20.959257608263396L28.34300730091095,21.2842007082634L28.63490130091095,21.2842007082634C28.78156730091095,21.281226708263397,28.85489930091095,21.2239717082634,28.85489930091095,21.112434708263397C28.85202330091095,21.013538708263397,28.77869130091095,20.9622326082634,28.63490130091095,20.959258208263396L28.34300730091095,20.959257608263396Z" fill-rule="evenodd" fill="#0B0B0B" fill-opacity="1"/></g></g><g><g><path d="M4.976693118167877,21.987983573359966L5.487148118167877,21.987983573359966L5.554370118167877,21.764910573359966L5.117607118167877,21.764910573359966C5.024144118167877,21.764910573359966,4.980288118167877,21.724013573359965,4.985680118167878,21.641476573359967C4.991791118167877,21.620656573359966,4.998621118167877,21.598721573359967,5.005810118167878,21.575298573359966C5.013359118167878,21.551875573359965,5.0201891181678775,21.529568573359967,5.026300118167877,21.508748573359966L5.024503118167877,21.508748573359966L5.1237181181678775,21.170793573359965C5.1481631181678775,21.120229873359968,5.177999118167877,21.083422673359966,5.212509118167877,21.061115673359968C5.2466591181678774,21.038808173359968,5.2869201181678775,21.028026573359966,5.333652118167877,21.028026573359966L6.1047321181678775,21.028026573359966C6.0691421181678775,21.085281773359966,6.0371421181678775,21.135473573359967,6.010182118167878,21.177485573359967C5.9825021181678775,21.219869573359965,5.958062118167877,21.257791573359967,5.936492118167877,21.291996573359967L5.937212118167877,21.290137573359967L5.748487118167877,21.290137573359967L5.747768118167877,21.291996573359967L5.426397118167877,21.291996573359967L5.3627701181678775,21.508749573359967L5.798095118167877,21.506890573359968C5.844822118167877,21.506890573359968,5.878622118167877,21.518043573359968,5.899822118167878,21.540350573359966C5.921032118167878,21.562286573359966,5.929302118167877,21.598721573359967,5.9242721181678775,21.649656573359966C5.923552118167877,21.652259573359967,5.922472118167877,21.655233573359965,5.920672118167877,21.658579573359965C5.919242118167877,21.661925573359966,5.918162118167877,21.664528573359966,5.917442118167877,21.667130573359966L5.921392118167877,21.667130573359966L5.788029118167877,22.122566573359965C5.744892118167877,22.204736573359966,5.676592118167878,22.245636573359967,5.583488118167877,22.245636573359967L5.338685118167877,22.249726573359965L5.337966118167877,22.251586573359965L4.805942118167877,22.255676573359967L4.976693118167877,21.987983573359966Z" fill-rule="evenodd" fill="#0B0B0B" fill-opacity="1"/></g><g><path d="M6.744230082698822,22.249722040806116L5.809234082698822,22.249722040806116L6.166553082698822,21.029882040806115L6.486127082698822,21.029882040806115L6.206814082698822,21.993557040806113L6.492597082698822,21.993557040806113L6.773348082698822,21.035830790806116L6.779099082698822,21.035830790806116L6.780537082698822,21.029882040806115L7.100114082698822,21.029882040806115L6.744230082698822,22.249722040806116Z" fill="#0B0B0B" fill-opacity="1"/></g><g><path d="M7.195381649738311,22.007317573359966L6.716200649738312,22.545666573359966L7.160512649738312,21.029885633359967L7.931950649738312,21.028026573359966C7.978680649738312,21.028026573359966,8.012830649738312,21.038808173359968,8.034040649738312,21.061115673359968C8.055250649738312,21.083051073359965,8.063510649738312,21.119858373359968,8.058480649738312,21.170793573359965L8.000250649738312,21.368956573359966L7.966820649738311,21.483095573359968L7.949200649738312,21.542953573359966L7.939850649738312,21.575298573359966C7.918650649738312,21.618426573359965,7.894200649738312,21.650771573359965,7.8665206497383116,21.673079573359967C7.839560649738312,21.695014573359966,7.8082906497383116,21.709514573359968,7.771980649738312,21.715834573359967L7.770180649738312,21.721783573359968L7.276622649738312,21.721783573359968L7.192865649738311,22.007316573359965L7.195021649738312,22.007316573359965L7.195381649738311,22.007317573359966ZM7.684627649738312,21.291996573359967L7.4031586497383115,21.291996573359967L7.337374649738312,21.516556573359967L7.618843649738312,21.516556573359967L7.684627649738312,21.291996573359967Z" fill-rule="evenodd" fill="#0B0B0B" fill-opacity="1"/></g><g><path d="M8.163782958057404,21.029882040806115L9.099134958057403,21.029882040806115L8.929824958057404,21.291993040806116L8.408585958057404,21.291993040806116L8.343161958057404,21.514694040806116L8.864404958057403,21.514694040806116L8.789270958057404,21.770856040806116L8.268030958057404,21.770856040806116L8.205122958057403,21.985378040806115L8.819464958057404,21.983891040806114L8.650872958057404,22.249722040806116L7.806104958057404,22.249722040806116L8.163782958057404,21.029882040806115Z" fill="#0B0B0B" fill-opacity="1"/></g><g><path d="M9.13007264523697,22.251597197987437L8.809420645236969,22.251597197987437L8.981609645236968,21.66380419798744L8.98053064523697,21.661573197987437L8.983047645236969,21.659714197987437L9.16745864523697,21.03027625798744L9.93853064523697,21.028417197987437C9.98527064523697,21.028417197987437,10.01942064523697,21.03919879798744,10.04026064523697,21.06150629798744C10.061110645236969,21.083441697987436,10.069380645236969,21.12024899798744,10.065070645236968,21.171184197987436L10.006830645236969,21.369347197987437L9.97340064523697,21.48348619798744L9.955790645236968,21.543344197987437L9.946440645236969,21.575689197987437C9.924870645236968,21.618817197987436,9.90043064523697,21.651162197987436,9.87275064523697,21.673470197987438C9.84543064523697,21.695405197987437,9.81415064523697,21.70990519798744,9.77820764523697,21.716225197987438L9.776410645236968,21.72217419798744L9.65562664523697,21.72217419798744L9.74477664523697,22.255687197987438L9.414058645236969,22.255687197987438L9.329581645236969,21.725892197987438L9.39105264523697,21.516575197987436L9.625070645236969,21.516575197987436L9.691574645236969,21.290156197987436L9.40075864523697,21.290156197987436L9.13007264523697,22.251597197987437Z" fill-rule="evenodd" fill="#0B0B0B" fill-opacity="1"/></g><g><path d="M11.775441555728912,21.029882040806115L11.605771555728913,21.291993040806116L11.084532555728913,21.291993040806116L10.881428555728913,21.985378040806115L11.496132555728913,21.983891040806114L11.327538555728912,22.249722040806116L10.573717855728912,22.249722040806116C10.561495855728912,22.231502040806113,10.548913955728912,22.215142040806114,10.536691955728912,22.200642040806116C10.524829165728912,22.186892040806114,10.517639765728912,22.164952040806114,10.516201555728912,22.136322040806114L10.812409555728912,21.126175040806114C10.830742555728913,21.097175640806114,10.850513555728913,21.076727140806113,10.869925555728912,21.064458040806116C10.890056555728913,21.051817440806115,10.910906555728912,21.040292040806115,10.931396555728913,21.029882040806115L11.776161555728912,21.029882040806115L11.775441555728912,21.029882040806115Z" fill-rule="evenodd" fill="#0B0B0B" fill-opacity="1"/></g><g><path d="M12.280892083927155,21.020214080810547L12.624906083927154,21.020214080810547L12.671286083927155,22.247864080810547L12.006253083927154,22.247864080810547L12.170533083927154,21.987979080810547L12.341284083927155,21.987979080810547L12.330859083927155,21.436617080810546L11.811417083927154,22.247864080810547L11.490046083927155,22.247864080810547L12.280892083927155,21.020214080810547Z" fill="#0B0B0B" fill-opacity="1"/></g><g><path d="M13.128891785251618,22.007317573359966L12.650429785251617,22.545666573359966L13.094741785251617,21.029885633359967L13.865819785251617,21.028026573359966C13.912549785251617,21.028026573359966,13.946339785251617,21.038808173359968,13.967549785251617,21.061115673359968C13.988759785251617,21.083051073359965,13.996669785251617,21.119858373359968,13.992349785251617,21.170793573359965L13.934119785251617,21.368956573359966L13.900689785251618,21.483095573359968L13.883069785251617,21.542953573359966L13.873729785251617,21.575298573359966C13.852519785251618,21.618426573359965,13.828069785251618,21.650771573359965,13.800749785251618,21.673079573359967Q13.773429785251617,21.695014573359966,13.704409785251617,21.721783573359968L13.211212785251618,21.721783573359968L13.127454785251617,22.007316573359965L13.129251785251617,22.007316573359965L13.128891785251618,22.007317573359966ZM13.618137785251617,21.291996573359967L13.336668785251618,21.291996573359967L13.270885785251618,21.516556573359967L13.552354785251618,21.516556573359967L13.618137785251617,21.291996573359967Z" fill-rule="evenodd" fill="#0B0B0B" fill-opacity="1"/></g><g><path d="M14.084730522110748,21.028026573359966L15.020450222110748,21.028026573359966L14.945315222110748,21.284189573359967L14.635446222110748,21.284189573359967L14.350382222110749,22.249726573359965L14.032965922110748,22.249726573359965L14.31587322211075,21.284189573359967L14.009600222110748,21.284189573359967L14.084730522110748,21.028026573359966Z" fill="#0B0B0B" fill-opacity="1"/></g><g><path d="M15.374174900272369,21.020214080810547L15.717836900272369,21.020214080810547L15.76492690027237,22.247864080810547L15.09989490027237,22.247864080810547L15.273161900272369,21.987979080810547L15.434566900272369,21.987979080810547L15.424500900272369,21.436617080810546L14.90469990027237,22.247864080810547L14.58404690027237,22.247864080810547L15.374174900272369,21.020214080810547Z" fill="#0B0B0B" fill-opacity="1"/></g><g><path d="M16.153864716983794,22.249722040806116L15.836088716983795,22.249722040806116L16.193407716983796,21.029882040806115L16.512980716983794,21.029882040806115L16.153864716983794,22.249722040806116Z" fill="#0B0B0B" fill-opacity="1"/></g><g><path d="M17.156820369632722,22.249722040806116L16.83760636963272,22.249722040806116L16.83940436963272,22.243402040806114L16.83329236963272,22.243402040806114L17.11404336963272,21.286044040806114L16.828619369632722,21.286044040806114L16.54247736963272,22.249722040806116L16.22326236963272,22.249722040806116L16.58058136963272,21.029882040806115L17.516292369632723,21.029882040806115L17.156820369632722,22.249722040806116Z" fill="#0B0B0B" fill-opacity="1"/></g></g></g></g></svg>
