<svg xmlns="http://www.w3.org/2000/svg" xmlns:xlink="http://www.w3.org/1999/xlink" fill="none" version="1.1" width="22" height="22" viewBox="0 0 22 22"><defs><clipPath id="master_svg0_47_06128"><rect x="0" y="0" width="22" height="22" rx="0"/></clipPath></defs><g clip-path="url(#master_svg0_47_06128)"><g><path d="M19.46994375,11.671710000000001L11.28487375,15.47551C11.11057375,15.56871,10.90236375,15.57361,10.72387375,15.488710000000001L2.51677075,11.66951C2.20597655,11.54006,2.06563885,11.17776,2.20813425,10.872726C2.35062975,10.5676924,2.71854475,10.442823,3.01727075,10.5981074L10.98787375,14.30841L18.96614375,10.6003071C19.26204375,10.4611865,19.61464375,10.5882477,19.75374375,10.884106C19.89284375,11.179966,19.76584375,11.532589999999999,19.46994375,11.671710000000001ZM3.01727075,14.14891L10.98787375,17.85921L18.96614375,14.15111C19.26494375,13.99583,19.63284375,14.1207,19.77534375,14.42573C19.91784375,14.73076,19.77744375,15.093060000000001,19.46664375,15.22251L11.28157375,19.03071C11.10713375,19.12339,10.89917375,19.12828,10.72057375,19.04391L2.51677075,15.22031C2.20597585,15.09086,2.06563835,14.72856,2.20813375,14.42353C2.35062975,14.11849,2.71854475,13.99362,3.01727075,14.14891Z" fill="#FFFFFF" fill-opacity="0.5" style="mix-blend-mode:passthrough"/></g><g><path d="M19.8303140625,7.56919875L19.8303140625,7.53069875C19.8233140625,7.41588875,19.7810140625,7.30604875,19.7093140625,7.21609875L19.6994140625,7.20399875C19.6387140625,7.1250487499999995,19.5603140625,7.06138875,19.4706140625,7.01809875L11.2800340625,3.20990025C11.1052140625,3.11720135,10.8969240625,3.11231015,10.7179340625,3.19670035L2.5119370625,7.01919875C2.2055964625,7.15330875,2.0661637625,7.51051875,2.2006376625,7.81669875C2.2481575625,7.91838875,2.3247040625,8.00373875,2.4206380625,8.06199875C2.4511120625,8.08302875,2.4830990625,8.10178875,2.5163370625,8.11809875L10.7201340625,11.93729875C10.8987440625,12.02166875,11.1066940625,12.01677875,11.2811340625,11.92409875L19.4706140625,8.119198749999999C19.5557140625,8.080848750000001,19.6309140625,8.02367875,19.6906140625,7.95199875L19.7093140625,7.93109875C19.7824140625,7.84006875,19.8254140625,7.72861875,19.8325140625,7.61209875C19.8292140625,7.59009875,19.8303140625,7.58129875,19.8303140625,7.56919875ZM10.9885340625,10.75919875L4.1388340625,7.56919875L10.9852340625,4.3791987500000005L17.8459140625,7.56919875L10.9885340625,10.75919875Z" fill="#C3F302" fill-opacity="1" style="mix-blend-mode:passthrough"/></g></g></svg>
