<svg xmlns="http://www.w3.org/2000/svg" xmlns:xlink="http://www.w3.org/1999/xlink" fill="none" version="1.1" width="13.004337310791016" height="9.752381324768066" viewBox="0 0 13.004337310791016 9.752381324768066"><defs><linearGradient x1="0.5" y1="0" x2="0.5" y2="1" id="master_svg0_36_4927"><stop offset="0%" stop-color="#2B2D24" stop-opacity="1"/><stop offset="100%" stop-color="#0B0C09" stop-opacity="1"/></linearGradient></defs><g><path d="M8.12815,0C7.8753,3.01417e-8,7.67033,0.204973,7.67033,0.45782C7.67033,0.710667,7.8753,0.91564,8.12815,0.91564C10.3162,0.916709,12.0895,2.69081,12.0895,4.8789C12.0895,7.06699,10.3162,8.84109,8.12815,8.84216C7.8768,8.84216,7.67304,9.04592,7.67304,9.29727C7.67304,9.54862,7.8768,9.75238,8.12815,9.75238C10.8212,9.75238,13.0043,7.56924,13.0043,4.87619C13.0043,2.18314,10.8212,0,8.12815,0ZM8.12815,6.80499C7.87513,6.80475,7.66988,7.00979,7.66988,7.26281C7.66988,7.51584,7.87513,7.72088,8.12815,7.72063C9.69909,7.72063,10.9726,6.44713,10.9726,4.87619C10.9726,3.30525,9.69909,2.03175,8.12815,2.03175C7.8753,2.03175,7.67033,2.23672,7.67033,2.48957C7.67033,2.74241,7.8753,2.94739,8.12815,2.94739C9.19489,2.94739,10.0597,3.81215,10.0597,4.8789C10.0597,5.94564,9.19489,6.81041,8.12815,6.81041L8.12815,6.80499ZM5.69005,8.05113L3.25196,6.39865L0.916805,6.39865L0.916805,3.35374L3.25196,3.35374L5.6738,1.72834L5.69005,8.05113ZM5.89594,0.465947L2.93772,2.4381L0.824699,2.4381C0.344823,2.46433,-0.0234323,2.87377,0.00116487,3.35374L0.00116487,6.40406C-0.0203552,6.88196,0.347039,7.28803,0.824699,7.31429L2.93771,7.31429L5.90136,9.28102C6.29145,9.54108,6.61111,9.34061,6.61111,8.83674L6.61111,0.91564C6.60569,0.406349,6.28603,0.211302,5.89594,0.471365L5.89594,0.465947Z" fill="#FFFFFF" fill-opacity="1"/><path d="M8.12815,0C7.8753,3.01417e-8,7.67033,0.204973,7.67033,0.45782C7.67033,0.710667,7.8753,0.91564,8.12815,0.91564C10.3162,0.916709,12.0895,2.69081,12.0895,4.8789C12.0895,7.06699,10.3162,8.84109,8.12815,8.84216C7.8768,8.84216,7.67304,9.04592,7.67304,9.29727C7.67304,9.54862,7.8768,9.75238,8.12815,9.75238C10.8212,9.75238,13.0043,7.56924,13.0043,4.87619C13.0043,2.18314,10.8212,0,8.12815,0ZM8.12815,6.80499C7.87513,6.80475,7.66988,7.00979,7.66988,7.26281C7.66988,7.51584,7.87513,7.72088,8.12815,7.72063C9.69909,7.72063,10.9726,6.44713,10.9726,4.87619C10.9726,3.30525,9.69909,2.03175,8.12815,2.03175C7.8753,2.03175,7.67033,2.23672,7.67033,2.48957C7.67033,2.74241,7.8753,2.94739,8.12815,2.94739C9.19489,2.94739,10.0597,3.81215,10.0597,4.8789C10.0597,5.94564,9.19489,6.81041,8.12815,6.81041L8.12815,6.80499ZM5.69005,8.05113L3.25196,6.39865L0.916805,6.39865L0.916805,3.35374L3.25196,3.35374L5.6738,1.72834L5.69005,8.05113ZM5.89594,0.465947L2.93772,2.4381L0.824699,2.4381C0.344823,2.46433,-0.0234323,2.87377,0.00116487,3.35374L0.00116487,6.40406C-0.0203552,6.88196,0.347039,7.28803,0.824699,7.31429L2.93771,7.31429L5.90136,9.28102C6.29145,9.54108,6.61111,9.34061,6.61111,8.83674L6.61111,0.91564C6.60569,0.406349,6.28603,0.211302,5.89594,0.471365L5.89594,0.465947Z" fill="url(#master_svg0_36_4927)" fill-opacity="0.4000000059604645"/></g></svg>