<svg xmlns="http://www.w3.org/2000/svg" xmlns:xlink="http://www.w3.org/1999/xlink" fill="none" version="1.1" width="18" height="18" viewBox="0 0 18 18"><defs><clipPath id="master_svg0_47_06063"><rect x="0" y="0" width="18" height="18" rx="0"/></clipPath><linearGradient x1="0.15931649506092072" y1="0" x2="0.8823431730270386" y2="0.9222847819328308" id="master_svg1_36_2617"><stop offset="0%" stop-color="#F0FF77" stop-opacity="1"/><stop offset="100%" stop-color="#DDFF8D" stop-opacity="1"/></linearGradient></defs><g clip-path="url(#master_svg0_47_06063)"><g><path d="M17.2286,4.23080607421875C17.6548,4.23080607421875,18,4.55803607421875,18,4.96150607421875L18,15.19242607421875C18,15.59602607421875,17.6546,15.92302607421875,17.2286,15.92302607421875C16.8027,15.92302607421875,16.4573,15.59582607421875,16.4573,15.19242607421875L16.4573,4.96150607421875C16.4573,4.55803607421875,16.8025,4.23080607421875,17.2286,4.23080607421875ZM13.1143,9.10267607421875C13.5404,9.10267607421875,13.8857,9.42990607421875,13.8857,9.83337607421875L13.8857,15.19242607421875C13.8857,15.59602607421875,13.5402,15.92302607421875,13.1143,15.92302607421875C12.6884,15.92302607421875,12.343,15.59582607421875,12.343,15.19242607421875L12.343,9.83337607421875C12.343,9.42971607421875,12.6882,9.10267607421875,13.1143,9.10267607421875ZM9,4.71793607421875C9.42612,4.71793607421875,9.77136,5.04516607421875,9.77136,5.44863607421875L9.77136,15.19222607421875C9.77136,15.59582607421875,9.42592,15.92292607421875,9,15.92292607421875C8.57388,15.92292607421875,8.22864,15.59562607421875,8.22864,15.19222607421875L8.22864,5.448826074218751C8.22864,5.04516607421875,8.57388,4.71793607421875,9,4.71793607421875ZM4.88568,2.76922607421875C5.3118,2.76922607421875,5.65704,3.09645707421875,5.65704,3.49992107421875L5.65704,15.19222607421875C5.65704,15.59582607421875,5.3116,15.92292607421875,4.88568,15.92292607421875C4.45956,15.92292607421875,4.11432,15.59562607421875,4.11432,15.19222607421875L4.11432,3.49992107421875C4.11412,3.09645707421875,4.45956,2.76922607421875,4.88568,2.76922607421875ZM0.77136,8.615356074218749C1.19748,8.615356074218749,1.54272,8.942586074218749,1.54272,9.346056074218751L1.54272,15.19222607421875C1.54272,15.59582607421875,1.19728,15.92292607421875,0.77136,15.92292607421875C0.345442,15.92292607421875,7.67476e-8,15.59562607421875,7.67476e-8,15.19222607421875L7.67476e-8,9.346246074218751C-0.000201079,8.942586074218749,0.345241,8.615356074218749,0.77136,8.615356074218749Z" fill="url(#master_svg1_36_2617)" fill-opacity="1"/></g></g></svg>