<svg xmlns="http://www.w3.org/2000/svg" xmlns:xlink="http://www.w3.org/1999/xlink" fill="none" version="1.1" width="16" height="16" viewBox="0 0 16 16"><defs><clipPath id="master_svg0_50_2414"><rect x="0" y="0" width="16" height="16" rx="0"/></clipPath></defs><g clip-path="url(#master_svg0_50_2414)"><g><path d="M8,0C3.58172,0,0,3.58172,0,8C0,12.4183,3.58172,16,8,16C12.4183,16,16,12.4183,16,8C15.9948,3.58389,12.4161,0.005225,8,0ZM14.7312,8C14.7315,11.7185,11.7178,14.733,8,14.733C4.28259,14.7334,1.26885,11.7197,1.26885,8.0019C1.2685,4.28449,4.28224,1.27074,8,1.27074C11.715,1.27492,14.7259,4.28496,14.7312,8Z" fill="#4D4D4D" fill-opacity="1" style="mix-blend-mode:passthrough"/></g><g><path d="M12.051212104797363,7.364625850143432L8.637272104797363,7.364625850143432L8.637272104797363,3.9506878501434324C8.636922104797364,3.6000238501434327,8.352562104797364,3.3159358501434326,8.001892104797363,3.3159358501434326C7.651232104797363,3.3159358501434326,7.366862104797363,3.6000238501434327,7.3665221047973635,3.9506878501434324L7.3665221047973635,7.364625850143432L3.9525841047973636,7.364625850143432C3.6016781047973634,7.364625850143432,3.3172121047973633,7.649095850143433,3.3172121047973633,7.999995850143432C3.3172121047973633,8.350905850143434,3.6016781047973634,8.635375850143433,3.9525841047973636,8.635375850143433L7.3665221047973635,8.635375850143433L7.3665221047973635,12.049315850143433C7.3668721047973635,12.399975850143433,7.651232104797363,12.684065850143433,8.001892104797363,12.684065850143433C8.352562104797364,12.684065850143433,8.636922104797364,12.399975850143433,8.637272104797363,12.049315850143433L8.637272104797363,8.635375850143433L12.051212104797363,8.635375850143433C12.402112104797363,8.635375850143433,12.686582104797363,8.350905850143434,12.686582104797363,7.999995850143432C12.686582104797363,7.649095850143433,12.402112104797363,7.364625850143432,12.051212104797363,7.364625850143432Z" fill="#4D4D4D" fill-opacity="1" style="mix-blend-mode:passthrough"/></g></g></svg>