<svg xmlns="http://www.w3.org/2000/svg" xmlns:xlink="http://www.w3.org/1999/xlink" fill="none" version="1.1" width="16" height="16" viewBox="0 0 16 16"><defs><clipPath id="master_svg0_50_3260"><rect x="0" y="0" width="16" height="16" rx="0"/></clipPath></defs><g clip-path="url(#master_svg0_50_3260)"><g><path d="M13.6481,6.66339L9.11599,6.66339L10.0089,0.159598C10.01728,0.096399,9.98142,0.0355235,9.92134,0.0109464C9.86125,-0.0136306,9.791789999999999,0.00416734,9.751719999999999,0.0544061L2.0732979,9.78181C1.99134799,9.88575,1.9769117,10.0262,2.0360735,10.1441C2.0952352,10.2619,2.217704,10.3366,2.351862,10.3366L6.88401,10.3366L5.99111,16.8404C5.9827200000000005,16.9036,6.01858,16.9645,6.07867,16.9891C6.13875,17.0136,6.20822,16.9958,6.24829,16.9456L13.9267,7.21819C14.0087,7.11424,14.0231,6.97375,13.9639,6.85592C13.9048,6.73809,13.7823,6.66342,13.6481,6.66339Z" fill="#FF9500" fill-opacity="1" style="mix-blend-mode:passthrough"/></g></g></svg>