<svg xmlns="http://www.w3.org/2000/svg" xmlns:xlink="http://www.w3.org/1999/xlink" fill="none" version="1.1" width="30" height="31" viewBox="0 0 30 31"><defs><filter id="master_svg0_83_1777" filterUnits="objectBoundingBox" color-interpolation-filters="sRGB" x="-12" y="-12" width="36" height="37"><feFlood flood-opacity="0" result="BackgroundImageFix"/><feBlend mode="normal" in="SourceGraphic" in2="BackgroundImageFix" result="shape"/><feGaussianBlur stdDeviation="3" result="effect1_foregroundBlur"/></filter></defs><g><g filter="url(#master_svg0_83_1777)"><path d="M9,22L11.625,22L21,22L21,9L9,9L9,22Z" fill="#BDEE7E" fill-opacity="1"/></g><g><path d="M18.44313,5.211899C18.46313,4.9751266,18.77681,4.9194155,18.87501,5.133904L19.84333,7.24721C20.11789,7.84684,20.68425,8.25188,21.329900000000002,8.310369999999999L23.604770000000002,8.5165C23.83662,8.53693,23.89209,8.85727,23.681150000000002,8.95755L21.61267,9.94642C21.02551,10.22682,20.62888,10.80519,20.57161,11.46455L20.36977,13.78771C20.34885,14.02448,20.03608,14.08112,19.93698,13.86571L18.96957,11.75239C18.69475,11.15313,18.12844,10.748470000000001,17.48299,10.69017L15.207211,10.48404C14.9762683,10.462679999999999,14.920806,10.14234,15.130836,10.04206L17.20022,9.05319C17.78712,8.77296,18.1837,8.195,18.24128,7.53599L18.44313,5.211899ZM25.0086,9.19711C25.0868,9.0244,25.337699999999998,9.0699,25.354100000000003,9.25839L25.445,10.30297C25.473399999999998,10.632719999999999,25.671599999999998,10.9221,25.9651,11.0625L26.895200000000003,11.50633C27.0634,11.587119999999999,27.018900000000002,11.84339,26.8343,11.859169999999999L25.811500000000002,11.952020000000001C25.4887,11.98152,25.2057,12.18421,25.0686,12.48407L24.6331,13.43394C24.554000000000002,13.60572,24.30396,13.56022,24.287599999999998,13.37173L24.19668,12.32715C24.16829,11.997399999999999,23.97014,11.708020000000001,23.6766,11.56762L22.746470000000002,11.12379C22.57826,11.043,22.6219,10.78673,22.807389999999998,10.77095L23.830260000000003,10.6781C24.153019999999998,10.6486,24.43601,10.44591,24.57309,10.146049999999999L25.0086,9.19618L25.0086,9.19711Z" fill="#000000" fill-opacity="1" style="mix-blend-mode:passthrough"/></g><g><path d="M12,8L15,8Q15.09849,8,15.19509,7.980785Q15.29169,7.96157,15.38268,7.923879Q15.47368,7.886188,15.55557,7.83147Q15.63746,7.776751,15.70711,7.707107Q15.77675,7.637463,15.83147,7.55557Q15.88619,7.473678,15.92388,7.382683Q15.96157,7.291689,15.98078,7.19509Q16,7.0984914,16,7Q16,6.9015086,15.98078,6.80491Q15.96157,6.708311,15.92388,6.617317Q15.88619,6.526322,15.83147,6.44443Q15.77675,6.362537,15.70711,6.292893Q15.63746,6.223249,15.55557,6.16853Q15.47368,6.113812,15.38268,6.076121Q15.29169,6.03843,15.19509,6.019215Q15.09849,6,15,6L12,6Q9.1005,6,7.05025,8.05025Q5,10.10051,5,13L5,22Q5,23.6569,6.171573,24.8284Q7.34315,26,9,26L21,26Q22.6569,26,23.8284,24.8284Q25,23.6569,25,22L25,16Q25,15.90151,24.9808,15.80491Q24.9616,15.70831,24.9239,15.61732Q24.8862,15.52632,24.8315,15.44443Q24.7767,15.36254,24.7071,15.29289Q24.6375,15.22325,24.5556,15.16853Q24.4737,15.11381,24.3827,15.07612Q24.2917,15.03843,24.1951,15.01921Q24.0985,15,24,15Q23.9015,15,23.8049,15.01921Q23.7083,15.03843,23.6173,15.07612Q23.5263,15.11381,23.4444,15.16853Q23.3625,15.22325,23.2929,15.29289Q23.2232,15.36254,23.1685,15.44443Q23.1138,15.52632,23.0761,15.61732Q23.0384,15.70831,23.0192,15.80491Q23,15.90151,23,16L23,22Q23,24,21,24L9,24Q7,24,7,22L6.999999,13Q7,10.92893,8.46447,9.46447Q9.92893,8,12,8Z" fill-rule="evenodd" fill="#000000" fill-opacity="1"/></g><g><path d="M23.3693,23.776040000000002L23.3698,23.77646Q23.5035,23.88492,23.6657,23.94246Q23.8279,24,24,24Q24.0985,24,24.1951,23.98078Q24.2917,23.961570000000002,24.3827,23.92388Q24.4737,23.88619,24.5556,23.83147Q24.6375,23.77675,24.7071,23.70711Q24.7767,23.63746,24.8315,23.55557Q24.8862,23.47368,24.9239,23.38268Q24.9616,23.29169,24.9808,23.19509Q25,23.098489999999998,25,23Q25,22.88841,24.9754,22.77957Q24.9508,22.67073,24.9028,22.56998Q24.8548,22.46924,24.7858,22.38155Q24.7168,22.29386,24.6302,22.22354L24.6297,22.22312L17.880200000000002,16.745281Q17.8045,16.683852,17.718400000000003,16.638198Q17.632199999999997,16.592543,17.538899999999998,16.564381Q17.4456,16.536218,17.348599999999998,16.526609Q17.2516,16.517,17.1545,16.526306Q17.057499999999997,16.535612,16.964100000000002,16.563483Q16.8707,16.591353,16.784399999999998,16.636739Q16.6981,16.682124,16.6223,16.743316Q16.5464,16.804508,16.4837,16.879202L15.096,18.53415L11.62492,16.173148Q11.561630000000001,16.1301,11.49253,16.097185Q11.42343,16.06427,11.35012,16.042256Q11.276810000000001,16.020241,11.20101,16.009639Q11.12521,15.99904,11.048680000000001,16.000095Q10.97214,16.001153,10.89666,16.013847Q10.82118,16.02654,10.74851,16.050573Q10.67584,16.074605,10.60768,16.109418Q10.53951,16.14423,10.47744,16.189011L5.415215,19.84099L5.414939,19.84119Q5.318606,19.91068,5.241234,20.00081Q5.163863,20.09094,5.109758,20.19669Q5.0556529999999995,20.30243,5.027827,20.41791Q5,20.53339,5,20.652169999999998Q5,20.75066,5.019215,20.84726Q5.03843,20.94386,5.076121,21.034860000000002Q5.113812,21.12585,5.16853,21.20774Q5.223249,21.28964,5.292893,21.35928Q5.362537,21.428919999999998,5.44443,21.48364Q5.526322,21.53836,5.617317,21.576050000000002Q5.708311,21.61374,5.80491,21.63296Q5.9015086,21.652169999999998,6,21.652169999999998Q6.157523,21.652169999999998,6.307417,21.603749999999998Q6.457312,21.555320000000002,6.585061,21.463160000000002L11.07938,18.22089L14.71883,20.69642Q14.79503,20.74825,14.87941,20.78528Q14.9638,20.82231,15.05353,20.84329Q15.14326,20.86428,15.23532,20.86851Q15.32738,20.87274,15.41866,20.86008Q15.50993,20.84742,15.59736,20.81829Q15.68479,20.78916,15.76542,20.74454Q15.84605,20.69992,15.91717,20.64132Q15.98829,20.582720000000002,16.0475,20.5121L17.3839,18.91834L23.3693,23.776040000000002Z" fill-rule="evenodd" fill="#000000" fill-opacity="1"/></g><g><ellipse cx="11" cy="12" rx="2" ry="2" fill="#000000" fill-opacity="1"/></g></g></svg>