<svg xmlns="http://www.w3.org/2000/svg" xmlns:xlink="http://www.w3.org/1999/xlink" fill="none" version="1.1" width="20" height="20" viewBox="0 0 20 20"><defs><clipPath id="master_svg0_50_2627"><rect x="0" y="0" width="20" height="20" rx="0"/></clipPath></defs><g clip-path="url(#master_svg0_50_2627)"><g><path d="M1.02367,17.08159551925659C0.587685,17.082895519256592,0.199003,16.80719551925659,0.056283,16.395195519256593C-0.0864369,15.983195519256592,0.0483334,15.526095519256591,0.391712,15.257395519256592L7.0798,10.00166551925659L0.391712,4.742575519256592C-0.0514723,4.393945519256592,-0.128232,3.7520985192565917,0.220244,3.308793519256592C0.568719,2.865488319256592,1.21054,2.7885075192565916,1.65396,3.1368295192565916L9.36085,9.19629551925659C9.88021,9.604865519256592,9.88021,10.391795519256592,9.36085,10.80036551925659L1.65396,16.861495519256593C1.47487,17.00419551925659,1.25264,17.08179551925659,1.02367,17.08159551925659Z" fill="#000000" fill-opacity="1"/></g><g><path d="M10.651448153747559,15.257328958129882C10.308069253747558,15.526028958129883,10.173298853747559,15.983128958129884,10.316018153747558,16.39512895812988C10.458738153747559,16.807128958129884,10.847420153747558,17.082928958129884,11.283404153747558,17.081528958129883C11.511534153747558,17.081428958129884,11.73297415374756,17.004428958129882,11.912034153747559,16.863128958129884L19.620584153747558,10.801968958129883C20.139944153747557,10.393398958129882,20.139944153747557,9.606468958129883,19.620584153747558,9.197898958129883L11.912034153747559,3.138436958129883C11.469054153747559,2.790288958129883,10.82776115374756,2.866961158129883,10.479348153747559,3.309725958129883C10.130935153747558,3.752491958129883,10.207223853747559,4.393828958129883,10.649780153747558,4.742508958129883L17.34287415374756,10.001608958129882L10.651448153747559,15.257328958129882Z" fill="#000000" fill-opacity="0.30000001192092896"/></g></g></svg>