<svg xmlns="http://www.w3.org/2000/svg" xmlns:xlink="http://www.w3.org/1999/xlink" fill="none" version="1.1" width="16" height="16" viewBox="0 0 16 16"><defs><clipPath id="master_svg0_50_3425"><rect x="0" y="0" width="16" height="16" rx="0"/></clipPath></defs><g clip-path="url(#master_svg0_50_3425)"><g><path d="M7.290455,1.5C10.445285,1.5,13.002725,4.05772,13.002725,7.21281C13.002725,8.66881,12.458125,9.99758,11.561505,11.00648C11.575045,11.01749,11.588025,11.02918,11.600325,11.04153L14.274125,13.7163C14.471225,13.9135,14.471125,14.2331,14.273925,14.4302C14.076425,14.6275,13.756625,14.6273,13.559325,14.4301L10.885565,11.7552C10.866595,11.7363,10.849165,11.7158,10.833425,11.6941C9.859795,12.4653,8.628895,12.9256,7.290455,12.9256C4.135605,12.9256,1.578125,10.36792,1.578125,7.21281C1.578125,4.05772,4.135625,1.5,7.290455,1.5ZM7.290455,2.53442C4.706855,2.53442,2.6124549999999997,4.629020000000001,2.6124549999999997,7.21281C2.6124549999999997,9.79663,4.706855,11.8912,7.290455,11.8912C9.874035,11.8912,11.968425,9.79663,11.968425,7.21281C11.968425,4.629020000000001,9.874035,2.53442,7.290455,2.53442ZM7.461035,4.66161C7.715285,4.66161,7.922095,4.86481,7.927955,5.11767L7.928075,5.1287L7.928065,7.04195L9.787285,7.04195C10.045215,7.04195,10.254315,7.25108,10.254315,7.50905C10.254315,7.76331,10.051155,7.97014,9.798295,7.976L9.787285,7.97613L7.928065,7.97613L7.928065,9.87142C7.928065,10.12939,7.718965,10.3385,7.461035,10.3385C7.206785,10.3385,6.999965,10.13531,6.994105,9.88244L6.993985,9.87142L6.993985,7.97612L5.0449649999999995,7.97612C4.7870349999999995,7.97612,4.577935,7.767,4.577935,7.50905C4.577935,7.25477,4.7810950000000005,7.04795,5.033955000000001,7.04208L5.0449649999999995,7.04195L6.993985,7.04195L6.993985,5.1287C6.993985,4.87073,7.203095,4.66161,7.461035,4.66161Z" fill="#333333" fill-opacity="1" style="mix-blend-mode:passthrough"/></g></g></svg>