<svg xmlns="http://www.w3.org/2000/svg" xmlns:xlink="http://www.w3.org/1999/xlink" fill="none" version="1.1" width="12.7275390625" height="14.414306640625" viewBox="0 0 12.7275390625 14.414306640625"><g><g transform="matrix(0,1,-1,0,7.8294677734375,-5.0008544921875)"><path d="M6.4151611328125,0.414306640625L18.4151611328125,0.414306640625Q18.5136611328125,0.414306640625,18.6102611328125,0.433521640625Q18.7068611328125,0.45273664062499996,18.7978611328125,0.490427640625Q18.8888611328125,0.528118640625,18.9707611328125,0.582836640625Q19.0526611328125,0.637555640625,19.1222611328125,0.707199640625Q19.191861132812498,0.776843640625,19.2466611328125,0.858736640625Q19.301361132812502,0.940628640625,19.3390611328125,1.031623640625Q19.3767611328125,1.1226176406250001,19.395961132812502,1.219216640625Q19.4151611328125,1.315815240625,19.4151611328125,1.414306640625Q19.4151611328125,1.512798040625,19.395961132812502,1.609396640625Q19.3767611328125,1.7059956406249999,19.3390611328125,1.796989640625Q19.301361132812502,1.887984640625,19.2466611328125,1.969876640625Q19.191861132812498,2.051769640625,19.1222611328125,2.121413640625Q19.0526611328125,2.191057640625,18.9707611328125,2.245776640625Q18.8888611328125,2.3004946406249998,18.7978611328125,2.338185640625Q18.7068611328125,2.375876640625,18.6102611328125,2.395091640625Q18.5136611328125,2.414306640625,18.4151611328125,2.414306640625L6.4151611328125,2.414306640625Q6.3166697328125,2.414306640625,6.2200711328125,2.395091640625Q6.1234721328125,2.375876640625,6.0324781328125,2.338185640625Q5.9414831328125,2.3004946406249998,5.8595911328125,2.245776640625Q5.7776981328125,2.191057640625,5.7080541328125,2.121413640625Q5.6384101328125,2.051769640625,5.5836911328125,1.969876640625Q5.5289731328125,1.887984640625,5.4912821328125,1.796989640625Q5.4535911328125,1.7059956406249999,5.4343761328125,1.609396640625Q5.4151611328125,1.512798040625,5.4151611328125,1.414306640625Q5.4151611328125,1.315815240625,5.4343761328125,1.219216640625Q5.4535911328125,1.1226176406250001,5.4912821328125,1.031623640625Q5.5289731328125,0.940628640625,5.5836911328125,0.858736640625Q5.6384101328125,0.776843640625,5.7080541328125,0.707199640625Q5.7776981328125,0.637555640625,5.8595911328125,0.582836640625Q5.9414831328125,0.528118640625,6.0324781328125,0.490427640625Q6.1234721328125,0.45273664062499996,6.2200711328125,0.433521640625Q6.3166697328125,0.414306640625,6.4151611328125,0.414306640625Z" fill-rule="evenodd" fill="#FFFFFF" fill-opacity="1"/></g><g transform="matrix(-0.7071067690849304,0.7071067690849304,-0.7071067690849304,-0.7071067690849304,23.813601113088225,2.8642328353635094)"><path d="M10.3135986328125,6.36407470703125Q10.3135986328125,6.26558330703125,10.332813632812499,6.16898470703125Q10.3520286328125,6.07238570703125,10.3897196328125,5.98139170703125Q10.4274106328125,5.89039670703125,10.4821286328125,5.80850470703125Q10.5368476328125,5.72661170703125,10.6064916328125,5.65696770703125Q10.6761356328125,5.58732370703125,10.7580286328125,5.53260470703125Q10.8399206328125,5.47788670703125,10.9309156328125,5.44019570703125Q11.0219096328125,5.40250470703125,11.1185086328125,5.38328970703125Q11.2151072328125,5.36407470703125,11.3135986328125,5.36407470703125Q11.4120900328125,5.36407470703125,11.5086886328125,5.38328970703125Q11.6052876328125,5.40250470703125,11.6962816328125,5.44019570703125Q11.7872766328125,5.47788670703125,11.8691686328125,5.53260470703125Q11.9510616328125,5.58732370703125,12.0207056328125,5.65696770703125Q12.0903496328125,5.72661170703125,12.1450686328125,5.80850470703125Q12.1997866328125,5.89039670703125,12.2374776328125,5.98139170703125Q12.2751686328125,6.07238570703125,12.294383632812501,6.16898470703125Q12.3135986328125,6.26558330703125,12.3135986328125,6.36407470703125L12.3135986328125,12.36407470703125L18.3135986328125,12.36407470703125Q18.412088632812498,12.36407470703125,18.5086886328125,12.383284707031251Q18.6052886328125,12.40250470703125,18.6962786328125,12.44019470703125Q18.7872786328125,12.47788470703125,18.8691686328125,12.53260470703125Q18.9510586328125,12.58732470703125,19.0207086328125,12.65696470703125Q19.0903486328125,12.72661470703125,19.1450686328125,12.80850470703125Q19.1997886328125,12.89039470703125,19.2374786328125,12.98139470703125Q19.275168632812502,13.07238470703125,19.2943786328125,13.16898470703125Q19.3135986328125,13.26558470703125,19.3135986328125,13.36407470703125Q19.3135986328125,13.46256470703125,19.2943786328125,13.55916470703125Q19.275168632812502,13.65576470703125,19.2374786328125,13.74675470703125Q19.1997886328125,13.83775470703125,19.1450686328125,13.91964470703125Q19.0903486328125,14.00153470703125,19.0207086328125,14.07118470703125Q18.9510586328125,14.14082470703125,18.8691686328125,14.19554470703125Q18.7872786328125,14.25026470703125,18.6962786328125,14.28795470703125Q18.6052886328125,14.32564470703125,18.5086886328125,14.34485470703125Q18.412088632812498,14.36407470703125,18.3135986328125,14.36407470703125L11.3135986328125,14.36407470703125Q11.2151072328125,14.36407470703125,11.1185086328125,14.34485470703125Q11.0219096328125,14.32564470703125,10.9309156328125,14.28795470703125Q10.8399206328125,14.25026470703125,10.7580286328125,14.19554470703125Q10.6761356328125,14.14082470703125,10.6064916328125,14.07118470703125Q10.5368476328125,14.00153470703125,10.4821286328125,13.91964470703125Q10.4274106328125,13.83775470703125,10.3897196328125,13.74675470703125Q10.3520286328125,13.65576470703125,10.332813632812499,13.55916470703125Q10.3135986328125,13.46256470703125,10.3135986328125,13.36407470703125L10.3135986328125,6.36407470703125Z" fill-rule="evenodd" fill="#FFFFFF" fill-opacity="1"/></g></g></svg>