<svg xmlns="http://www.w3.org/2000/svg" xmlns:xlink="http://www.w3.org/1999/xlink" fill="none" version="1.1" width="18.666667938232422" height="19.83333396911621" viewBox="0 0 18.666667938232422 19.83333396911621"><g><path d="M7,1.51667L7,0L11.6667,0L11.6667,1.51667C15.75,2.56667,18.6667,6.18333,18.6667,10.5C18.6667,15.6333,14.4667,19.8333,9.33333,19.8333C4.2,19.8333,0,15.6333,0,10.5C0,6.18333,2.91667,2.45,7,1.51667ZM9.33333,17.5C13.1833,17.5,16.3333,14.35,16.3333,10.5C16.3333,6.65,13.1833,3.5,9.33333,3.5C5.48334,3.5,2.33333,6.65,2.33333,10.5C2.33333,14.35,5.48334,17.5,9.33333,17.5ZM12.3667,5.83333L14,7.46667L9.8,11.6667L8.16667,10.0333L12.3667,5.83333Z" fill="#FF9500" fill-opacity="1" style="mix-blend-mode:passthrough"/></g></svg>
