<svg xmlns="http://www.w3.org/2000/svg" xmlns:xlink="http://www.w3.org/1999/xlink" fill="none" version="1.1" width="14.000000953674316" height="14.000000953674316" viewBox="0 0 14.000000953674316 14.000000953674316"><g><path d="M14,7C14,3.13401,10.866,0,7,0C3.13401,0,0,3.134,0,7C0,10.866,3.13401,14,7,14C10.866,14,14,10.866,14,7ZM13,7C13,10.3137,10.3137,13,7,13C3.68629,13,0.999999,10.3137,1,7C1,3.68629,3.68629,0.999999,7,1C10.3137,1,13,3.68629,13,7ZM4.57495,5.4311C4.57495,4.09346,5.66231,3.0061,6.99995,3.0061C8.33759,3.0061,9.42495,4.09346,9.42495,5.4311C9.42495,6.49869,8.60555,7.33289,7.77822,7.66961C7.61531,7.73731,7.5,7.89828,7.5,8.0925L7.5,9L6.5,9L6.5,8.0925C6.5,7.48413,6.86821,6.96335,7.39776,6.74481L7.40031,6.74376C7.98046,6.50808,8.42495,5.96885,8.42495,5.4311C8.42495,4.64574,7.78531,4.0061,6.99995,4.0061C6.21459,4.0061,5.57495,4.64574,5.57495,5.4311L4.57495,5.4311ZM6.3999,10.6C6.3999,10.2686,6.66853,10,6.9999,10C7.33127,10,7.5999,10.2686,7.5999,10.6C7.5999,10.9314,7.33127,11.2,6.9999,11.2C6.66853,11.2,6.3999,10.9314,6.3999,10.6Z" fill-rule="evenodd" fill="#000000" fill-opacity="0.4000000059604645"/></g></svg>