<svg xmlns="http://www.w3.org/2000/svg" xmlns:xlink="http://www.w3.org/1999/xlink" fill="none" version="1.1" width="46" height="46" viewBox="0 0 46 46"><defs><filter id="master_svg0_50_3692" filterUnits="objectBoundingBox" color-interpolation-filters="sRGB" x="-20" y="-20" width="56" height="56"><feFlood flood-opacity="0" result="BackgroundImageFix"/><feBlend mode="normal" in="SourceGraphic" in2="BackgroundImageFix" result="shape"/><feGaussianBlur stdDeviation="5" result="effect1_foregroundBlur"/></filter><mask id="master_svg1_50_3692" style="mask-type:alpha" maskUnits="userSpaceOnUse"><g filter="url(#master_svg0_50_3692)"><rect x="15" y="15" width="16" height="16" rx="0" fill="#FFFFFF" fill-opacity="1"/></g></mask><filter id="master_svg2_50_3691" filterUnits="objectBoundingBox" color-interpolation-filters="sRGB" x="-12" y="-12" width="38" height="41.5"><feFlood flood-opacity="0" result="BackgroundImageFix"/><feBlend mode="normal" in="SourceGraphic" in2="BackgroundImageFix" result="shape"/><feGaussianBlur stdDeviation="3" result="effect1_foregroundBlur"/></filter></defs><g><g mask="url(#master_svg1_50_3692)"><g filter="url(#master_svg2_50_3691)"><path d="M16,31L30,31L30,13.5L23,16L17.5,19.5L16,31Z" fill="#BDEE7E" fill-opacity="1"/></g></g><g transform="matrix(0.7583634257316589,-0.6518319249153137,0.6518319249153137,0.7583634257316589,-13.60954869492707,13.200594219269988)"><path d="M10.236452,32.5856550390625L10.23632,32.5858050390625Q10.121873,32.7211950390625,10.060937,32.8876650390625Q10,33.0541350390625,10,33.2314050390625Q10,33.3298950390625,10.019214999999999,33.4264950390625Q10.03843,33.5230950390625,10.076121,33.6140850390625Q10.113812,33.705085039062496,10.16853,33.7869750390625Q10.223249,33.8688650390625,10.292893,33.9385050390625Q10.362537,34.0081550390625,10.44443,34.062875039062504Q10.526322,34.1175950390625,10.617317,34.1552850390625Q10.708311,34.1929750390625,10.80491,34.212185039062504Q10.9015086,34.2314050390625,11,34.2314050390625Q11.109054,34.2314050390625,11.215544,34.2078950390625Q11.322034,34.1843950390625,11.420954,34.1384850390625Q11.519875,34.0925750390625,11.606575,34.0264350390625Q11.693276000000001,33.9602850390625,11.76368,33.8769950390625L11.763812,33.8768450390625L14.562809999999999,30.5658850390625Q16.40174,32.2201050390625,18.42887,33.1358850390625Q19.67538,33.6990050390625,20.989060000000002,33.9809950390625Q21.6461,34.122035039062496,22.319000000000003,34.192505039062496Q22.3936,34.2003150390625,22.4685,34.1969150390625Q22.5434,34.1935250390625,22.6169,34.1789950390625Q22.6905,34.1644650390625,22.7611,34.1391350390625Q22.8316,34.1138050390625,22.8976,34.0782350390625Q22.9636,34.0426650390625,23.023600000000002,33.9976550390625Q23.0835,33.9526350390625,23.1361,33.8991850390625Q23.1887,33.845735039062504,23.2327,33.785045039062496Q23.276699999999998,33.7243450390625,23.3112,33.6577650390625L23.6186,33.0641650390625L24.1119,33.7705350390625Q24.1886,33.8803750390625,24.291600000000003,33.9661550390625Q24.3945,34.051925039062496,24.5163,34.1075850390625Q24.638199999999998,34.1632350390625,24.770400000000002,34.1848450390625Q24.9027,34.2064650390625,25.035899999999998,34.192505039062496Q25.7089,34.122035039062496,26.3659,33.9809950390625Q27.6796,33.6990050390625,28.9261,33.1358850390625Q30.9706,32.2122550390625,32.824,30.5371550390625Q33.4588,29.9633950390625,33.4588,29.1097550390625Q33.4588,28.2561050390625,32.824,27.6823450390625Q28.7017,23.9566650390625,23.677500000000002,23.9566650390625Q18.18339,23.9566660390625,13.77406,28.4058350390625Q13.7462,28.4339350390625,13.72065,28.4641550390625L10.236452,32.5856550390625ZM15.93488,29.1098950390625Q19.46367,25.9566640390625,23.677500000000002,25.9566650390625Q27.8943,25.9566650390625,31.4202,29.1097550390625Q29.8278,30.5338850390625,28.1027,31.3132450390625Q27.0509,31.7883950390625,25.9461,32.0255450390625Q25.6766,32.0834050390625,25.4036,32.1271550390625L24.311,30.5627850390625Q24.197200000000002,30.3997050390625,24.0295,30.2926250390625Q23.8619,30.1855550390625,23.666,30.150775039062502Q23.4702,30.1160050390625,23.2759,30.1588250390625Q23.081699999999998,30.201645039062498,22.918599999999998,30.3155350390625Q22.7165,30.4566750390625,22.6032,30.675555039062502L21.8594,32.1120050390625Q21.6329,32.0736450390625,21.4088,32.025535039062504Q20.30405,31.7883950390625,19.25227,31.3132450390625Q17.52733,30.5339850390625,15.93488,29.1098950390625Z" fill-rule="evenodd" fill="#000000" fill-opacity="1"/></g><g><line x1="20" y1="30" x2="26" y2="30" fill-opacity="0" stroke-opacity="1" stroke="#000000" fill="none" stroke-width="2" stroke-linecap="ROUND" stroke-linejoin="round"/></g><g><line x1="29" y1="30" x2="31" y2="30" fill-opacity="0" stroke-opacity="1" stroke="#000000" fill="none" stroke-width="2" stroke-linecap="ROUND" stroke-linejoin="round"/></g></g></svg>