<svg xmlns="http://www.w3.org/2000/svg" xmlns:xlink="http://www.w3.org/1999/xlink" fill="none" version="1.1" width="64" height="64" viewBox="0 0 64 64"><defs><clipPath id="master_svg0_162_8918"><rect x="0" y="0" width="64" height="64" rx="0"/></clipPath></defs><g clip-path="url(#master_svg0_162_8918)"><g><path d="M21.33333,0L58.6667,0Q64,0,64,5.33333L64,42.6667Q64,48,58.6667,48L21.33333,48Q16,48,16,42.6667L16,5.33333Q16,-6.10352e-7,21.33333,0Z" fill="#D8FF00" fill-opacity="1" style="mix-blend-mode:passthrough"/></g><g><path d="M38.6667,14.666748046875C47.5032,14.666746826175,54.6667,21.830188046875,54.6667,30.666748046875L54.6667,44.000048046875C54.6667,52.836648046875,47.5032,60.000048046875,38.6667,60.000048046875L20,60.000048046875C11.16344,60.000048046875,4,52.836648046875,4,44.000048046875L4,30.666748046875C4.00000213623,21.830188046875,11.16344,14.666749267575,20,14.666749267575L38.6667,14.666748046875ZM38.6667,20.000078046875L20,20.000078046875C14.109,20.000078046875,9.33333,24.775748046875,9.33333,30.666748046875L9.33333,44.000048046875C9.33333,49.891148046875,14.109,54.666748046875,20,54.666748046875L38.6667,54.666748046875C44.5577,54.666748046875,49.3333,49.891148046875,49.3333,44.000048046875L49.3333,30.666748046875C49.3333,24.775748046875,44.5577,20.000078046875,38.6667,20.000078046875Z" fill="#000000" fill-opacity="1" style="mix-blend-mode:passthrough"/></g><g><path d="M21.3336621875,32Q24.0003221875,32,24.0003221875,34.666669999999996L24.0003221875,40Q24.0003221875,42.6667,21.3336621875,42.6667Q18.6669921875,42.6667,18.6669921875,40L18.6669921875,34.666669999999996Q18.6669921875,31.99999755859,21.3336621875,32Z" fill="#000000" fill-opacity="1" style="mix-blend-mode:passthrough"/></g><g><path d="M37.306589843750004,31.5199953203125C38.30806984375,30.7688863203125,39.72881984375,30.9718506203125,40.47991984375,31.9733273203125C41.23102984375,32.9748083203125,41.02806984375,34.3955583203125,40.02658984375,35.1466583203125L37.10925984375,37.3333283203125L40.02658984375,39.519998320312496C40.93303984375,40.1997183203125,41.19836984375,41.4443283203125,40.64792984375,42.4346283203125L40.47992984375,42.6933283203125C39.72880984375,43.694828320312496,38.30806984375,43.8977283203125,37.306589843750004,43.1466283203125L33.39458984375,40.2133283203125C31.47458984375,38.7733283203125,31.47458984375,35.8933283203125,33.39458984375,34.4533283203125L37.306589843750004,31.5199953203125Z" fill="#000000" fill-opacity="1" style="mix-blend-mode:passthrough"/></g><g><path d="M57.0478178125,15.7279283203125L55.7491478125,18.837228320312498C55.5667278125,19.2740283203125,55.1397778125,19.558328320312498,54.6664878125,19.558328320312498C54.1931978125,19.558328320312498,53.7662478125,19.2740283203125,53.5838178125,18.837228320312498L52.2851478125,15.7279283203125C52.0285278125,15.1136283203125,51.5705478125,14.6048283203125,50.9864878125,14.2852583203125L48.6931498125,13.0292683203125C48.3169478125,12.8234283203125,48.0830078125,12.4287583203125,48.0830078125,11.999928320312499C48.0830078125,11.571098320312501,48.3169478125,11.1764283203125,48.6931498125,10.9705983203125L50.9864878125,9.7172583203125C51.5704878125,9.397268320312499,52.0264878125,8.8879283203125,52.2851478125,8.271928320312501L53.5838178125,5.1625973203125C53.7662478125,4.7258803203125,54.1931978125,4.4415283203125,54.6664878125,4.4415283203125C55.1397678125,4.4415277099605,55.5667178125,4.7258803203125,55.7491478125,5.1625973203125L57.0478178125,8.271928320312501C57.3044378125,8.8862583203125,57.762417812500004,9.3950183203125,58.3465078125,9.7145983203125L60.6398078125,10.9705983203125C61.0160078125,11.1764283203125,61.2500078125,11.5711083203125,61.2500078125,11.999928320312499C61.2500078125,12.4287583203125,61.0160078125,12.8234283203125,60.6398078125,13.0292683203125L58.3465078125,14.2825983203125C57.761967812500004,14.6028283203125,57.303937812499996,15.1126283203125,57.0478178125,15.7279283203125Z" fill="#000000" fill-opacity="1" style="mix-blend-mode:passthrough"/></g></g></svg>